<?xml version="1.0" standalone="no"?>
<!DOCTYPE svg PUBLIC "-//W3C//DTD SVG 1.1//EN" "http://www.w3.org/Graphics/SVG/1.1/DTD/svg11.dtd" >
<svg xmlns="http://www.w3.org/2000/svg">
<metadata>Generated by IcoMoon</metadata>
<defs>
<font id="icomoon" horiz-adv-x="1024">
<font-face units-per-em="1024" ascent="960" descent="-64" />
<missing-glyph horiz-adv-x="1024" />
<glyph unicode="&#x20;" d="" horiz-adv-x="512" />
<glyph unicode="&#xe600;" d="M1789.515 656.777v303.223h-1789.515v-1024h1789.515v303.223h169.010v417.553h-169.010zM1739.806-14.291h-1690.097v924.583h1690.097v-924.583zM203.806 761.165h288.311v-626.33h-288.311v626.33zM621.359 761.165h288.311v-626.33h-288.311v626.33z" horiz-adv-x="1959" />
<glyph unicode="&#xe601;" d="M71.359 642.453l-14.272 14.272c-35.679 32.111-57.087 74.927-57.087 121.31s14.272 89.199 46.383 124.878c35.679 35.679 82.063 57.087 128.446 57.087 42.815 0 85.631-17.84 117.742-46.383l14.272-10.704-235.484-260.46zM174.829 924.321c-39.247 0-74.927-17.84-99.902-46.383-28.544-28.544-39.247-60.655-39.247-99.902 0-32.111 14.272-60.655 32.111-85.631l189.101 203.373c-24.976 17.84-53.519 28.544-82.063 28.544zM1045.408 642.453l-239.052 256.892 14.272 14.272c32.111 28.544 74.927 46.383 117.742 46.383 49.951 0 96.334-21.408 128.446-57.087s49.951-78.495 46.383-124.878c0-46.383-21.408-89.199-57.087-121.31l-10.704-14.272zM856.307 899.345l189.101-203.373c21.408 24.976 32.111 53.519 32.111 85.631 0 35.679-10.704 71.359-39.247 99.902-46.383 49.951-124.878 57.087-181.965 17.84zM991.889 546.118l-264.028 264.028h-360.362l-246.188-264.028v-360.362l107.038-107.038-99.902-117.742 24.976-24.976 99.902 114.174 110.606-114.174h360.362l128.446 117.742 107.038-121.31 28.544 24.976-107.038 121.31 110.606 103.47v363.93zM956.209 200.028l-242.62-224.78h-331.819l-224.78 224.78v331.819l224.78 242.62h331.819l242.62-242.62v-331.819zM406.746 210.732l-24.976 24.976 146.286 146.286v296.139h35.679v-310.411z" horiz-adv-x="1113" />
<glyph unicode="&#xe602;" d="M774.919 620.973v-207.568h-69.189v207.568zM913.297 724.757v-311.351h-69.189v311.351zM1051.676 863.135v-449.73h-69.189v449.73zM512-64c-41.514 0-83.027 6.919-124.541 17.297-273.297 69.189-439.351 345.946-370.162 619.243 48.432 204.108 217.946 352.865 425.514 380.541l41.514 6.919-24.216-34.595c-38.054-51.892-65.73-107.243-83.027-169.514-62.27-252.541 89.946-508.541 342.486-574.27 62.27-17.297 128-17.297 190.27-6.919l41.514 6.919-24.216-34.595c-96.865-131.459-252.541-211.027-415.135-211.027zM404.757 911.568c-176.432-38.054-311.351-172.973-356.324-349.405-65.73-256 89.946-515.459 345.946-577.73 38.054-10.378 76.108-13.838 117.622-13.838 138.378 0 269.838 62.27 359.784 162.595-55.351-3.459-107.243 0-162.595 13.838-269.838 69.189-435.892 345.946-366.703 615.784 13.838 55.351 34.595 103.784 62.27 148.757z" horiz-adv-x="1066" />
<glyph unicode="&#xe603;" d="M512-64c-42.942 0-85.884 6.606-125.523 16.516-274.168 66.065-439.329 346.839-369.961 621.006 49.548 201.497 218.013 353.445 426.116 379.871l39.639 6.606-23.123-33.032c-39.639-49.548-66.065-109.006-82.581-171.768-33.032-122.219-13.213-247.742 52.852-356.748s168.465-184.981 290.684-218.013c62.761-16.516 128.826-19.819 191.587-9.91l39.639 6.606-23.123-33.032c-99.097-132.129-254.348-208.103-416.206-208.103zM409.6 913.755c-178.374-36.335-317.11-171.768-363.355-350.142-66.065-257.652 92.49-518.606 346.839-581.368 39.639-9.91 79.277-13.213 118.916-13.213 0 0 0 0 0 0 138.735 0 270.865 62.761 363.355 165.161-56.155-3.303-109.006 0-161.858 13.213-132.129 33.032-241.135 115.613-310.503 231.226-72.671 118.916-92.49 254.348-59.458 386.477 13.213 52.852 36.335 102.4 66.065 148.645z" horiz-adv-x="951" />
<glyph unicode="&#xe604;" d="M968.482 960v-30.843c18.506 0 83.277-6.169 83.277-86.361v-542.843c0-101.783-89.446-104.867-98.699-104.867h-43.181v-200.482l-289.928 200.482h-493.494c-15.422 0-95.614 6.169-95.614 101.783v542.843c0 15.422 3.084 89.446 89.446 89.446h848.193v30.843zM968.482 960c0 0 0 0 0 0h-848.193c0 0-120.289 0-120.289-120.289 0-58.602 0-478.072 0-542.843 0-129.542 114.12-132.627 126.458-132.627 0 0 0 0 0 0h484.241l330.024-228.241v228.241h15.422c0 0 129.542 0 129.542 135.711 0 61.687 0 490.41 0 542.843 0 114.12-107.952 117.205-117.205 117.205v0zM203.566 750.265h672.386v-30.843h-672.386v30.843zM203.566 571.373h672.386v-30.843h-672.386v30.843zM203.566 395.566h339.277v-30.843h-339.277v30.843z" horiz-adv-x="1086" />
<glyph unicode="&#xe605;" d="M507.245 658.824c34.873 6.341 57.065 41.214 50.724 76.087s-41.214 57.065-76.087 50.724c-34.873-6.341-57.065-41.214-50.724-76.087s38.043-57.065 76.087-50.724zM434.328 417.882c0 3.17 0 6.341 0 6.341l-12.681 79.257 57.065 66.576c12.681 12.681 12.681 31.703 0 41.214-12.681 12.681-31.703 12.681-41.214 0l-69.746-85.598c-6.341-6.341-9.511-15.851-9.511-25.362 0-6.341 12.681-72.916 19.022-91.938 0-3.17 0 0 3.17-6.341 3.17-9.511 12.681-22.192 34.873-19.022 22.192 6.341 19.022 28.533 19.022 34.873zM662.588 176.941l-123.641 221.92c3.17 15.851 3.17 19.022 3.17 25.362 0 25.362 6.341 110.96 3.17 129.981-3.17 22.192-3.17 69.746-53.895 69.746-3.17 0-6.341 0-12.681 0 0 0 6.341-3.17 15.851-9.511 12.681-12.681 15.851-34.873 3.17-47.554l-53.895-66.576v-3.17l9.511-66.576c0 0 0-6.341 0-9.511 0-6.341 0-31.703-22.192-41.214l-104.619-190.217c-9.511-15.851-3.17-38.043 12.681-47.554s38.043-3.17 47.554 12.681l104.619 190.217 110.96-196.557c9.511-15.851 31.703-22.192 47.554-12.681 15.851 3.17 22.192 22.192 12.681 41.214zM672.099 465.437c-3.17 0-6.341 3.17-6.341 3.17l-76.087 38.043-31.703 91.938c-6.341 12.681-15.851 19.022-25.362 22.192 0 0 0 0 0 0 25.362-12.681 25.362-44.384 28.533-60.235s0-76.087-3.17-114.13c19.022-9.511 66.576-31.703 82.427-34.873 6.341 0 0 0 6.341-3.17 9.511-3.17 28.533-3.17 38.043 19.022 12.681 22.192-9.511 31.703-12.681 38.043zM1027.17 693.697h-31.703v234.601h-247.282v31.703h278.985zM31.703 693.697h-31.703v266.303h278.985v-31.703h-247.282zM1027.17-64h-278.985v31.703h247.282v234.601h31.703zM278.985-64h-278.985v266.303h31.703v-234.601h247.282z" horiz-adv-x="1027" />
<glyph unicode="&#xe606;" d="M1042.618 854.497l37.236 105.503h-927.806l37.236-105.503-189.285-3.103 124.121-223.418 158.255-46.545 24.824-74.473 201.697-74.473v-335.127l-158.255-161.358h533.721l-161.358 161.358v335.127l201.697 74.473 24.824 74.473 158.255 46.545 124.121 223.418-189.285 3.103zM145.842 652.8l-93.091 167.564 145.842 3.103 71.37-204.8-124.121 34.133zM806.788-32.97h-381.673l117.915 117.915v335.127l74.473-27.927 74.473 27.927v-335.127l114.812-117.915zM899.879 528.679l-282.376-102.4-282.376 102.4-139.636 400.291h840.921l-136.533-400.291zM1086.061 652.8l-124.121-37.236 71.37 204.8h145.842l-93.091-167.564z" horiz-adv-x="1232" />
<glyph unicode="&#xe607;" d="M837.51 895.576v-33.907h88.159v-149.192h-891.762v149.192h88.159v33.907h-122.066v-959.576h959.576v959.576h-122.066zM925.669-30.093h-891.762v708.662h891.762v-708.662zM247.523 960h33.907v-162.755h-33.907v162.755zM684.927 960h33.907v-162.755h-33.907v162.755zM389.934 895.576h189.881v-33.907h-189.881v33.907zM169.536 515.815h623.894v-33.907h-623.894v33.907zM169.536 349.669h623.894v-33.907h-623.894v33.907zM169.536 180.132h623.894v-33.907h-623.894v33.907z" horiz-adv-x="960" />
<glyph unicode="&#xe608;" d="M510.216 210.732c-128.446 0-235.484 107.038-235.484 235.484s107.038 235.484 235.484 235.484c128.446 0 235.484-107.038 235.484-235.484 3.568-128.446-103.47-235.484-235.484-235.484zM510.216 649.589c-110.606 0-199.805-89.199-199.805-199.805s89.199-199.805 199.805-199.805 199.805 89.199 199.805 199.805-89.199 199.805-199.805 199.805zM902.69 778.035c-107.038 128.446-274.732 192.669-438.857 178.397 3.568-46.383 10.704-92.767 14.272-139.15 10.704 0 24.976 3.568 35.679 3.568 206.941 0 374.634-167.693 374.634-374.634s-167.693-374.634-374.634-374.634c-82.063 0-156.99 24.976-217.645 71.359-28.544-35.679-57.087-71.359-82.063-110.606 135.582-96.334 313.979-121.31 470.969-67.791s278.3 185.533 321.115 349.659c42.815 164.125 3.568 338.955-103.47 463.833zM356.794 788.739c-17.84 42.815-35.679 85.631-57.087 124.878-28.544-14.272-60.655-28.544-85.631-49.951 28.544-39.247 53.519-74.927 82.063-114.174 17.84 17.84 39.247 28.544 60.655 39.247zM210.509 667.429c-39.247 24.976-78.495 53.519-114.174 78.495-21.408-28.544-35.679-57.087-49.951-89.199 39.247-17.84 82.063-35.679 124.878-53.519 10.704 21.408 21.408 42.815 39.247 64.223zM139.15 449.784c0 14.272 0 24.976 3.568 35.679-46.383 3.568-92.767 10.704-139.15 14.272-3.568-35.679-3.568-67.791 0-103.47 46.383 3.568 92.767 10.704 139.15 14.272-3.568 14.272-3.568 24.976-3.568 39.247zM171.261 296.362c-42.815-17.84-85.631-39.247-124.878-57.087 14.272-32.111 32.111-60.655 49.951-89.199 39.247 28.544 74.927 53.519 114.174 82.063-17.84 17.84-28.544 39.247-39.247 64.223z" />
<glyph unicode="&#xe609;" d="M410.774 783.954l-137.903-234.728c-44.011-76.287-14.67-173.112 61.616-217.123s173.112-14.67 217.123 61.616c26.407 49.88 26.407 108.562 0 155.507l-140.837 234.728zM413.708-64l-413.708 393.169v630.831h824.481v-630.831l-410.774-393.169zM29.341 340.905l384.367-366.762 384.367 363.828v589.754l-768.734 2.934v-589.754z" horiz-adv-x="827" />
<glyph unicode="&#xe60a;" d="M968.482 960v-30.843c18.506 0 83.277-6.169 83.277-86.361v-542.843c0-101.783-89.446-104.867-98.699-104.867h-43.181v-200.482l-289.928 200.482h-493.494c-15.422 0-95.614 6.169-95.614 101.783v542.843c0 15.422 3.084 89.446 89.446 89.446h848.193v30.843zM968.482 960c0 0 0 0 0 0h-848.193c0 0-120.289 0-120.289-120.289 0-58.602 0-478.072 0-542.843 0-129.542 114.12-132.627 126.458-132.627 0 0 0 0 0 0h484.241l330.024-228.241v228.241h15.422c0 0 129.542 0 129.542 135.711 0 61.687 0 490.41 0 542.843 0 114.12-107.952 117.205-117.205 117.205v0z" horiz-adv-x="1086" />
<glyph unicode="&#xe60b;" d="M0 960v-825.136h436.313l287.907-198.864v198.864h112.788v825.136h-837.009zM807.328 164.545h-112.788v-172.151l-249.322 172.151h-225.577v178.087h587.687v-178.087zM807.328 372.313h-379.919v160.278h379.919v-160.278zM807.328 562.272h-189.959v160.278h189.959v-160.278zM807.328 752.232h-219.641v-189.959h-189.959v-189.959h-207.768v-207.768h-160.278v765.774h777.646v-178.087z" horiz-adv-x="837" />
<glyph unicode="&#xe60c;" d="M743.647 907.731c-16.631 28.51-38.014 45.142-64.148 49.893-49.893 11.879-99.787-28.51-144.928-114.042-26.135-52.269-42.766-92.659-33.262-166.311 11.879-95.035-23.759-140.176-26.135-140.176-9.503-11.879-21.383-23.759-33.262-33.262-23.759-23.759-49.893-47.517-61.773-85.531-23.759-68.9 11.879-97.411 49.893-118.794 9.503-4.752 21.383-7.128 33.262-7.128 40.39 0 83.155 33.262 106.914 85.531 11.879 23.759 23.759 49.893 40.39 76.028l21.383 38.014c21.383 38.014 40.39 57.021 57.021 73.652 7.128 7.128 14.255 11.879 19.007 19.007 45.142 54.645 57.021 99.787 64.148 123.545 9.503 54.645 4.752 140.176-28.51 199.573zM589.216 463.443c-14.255-26.135-28.51-52.269-40.39-78.404-9.503-21.383-23.759-38.014-38.014-52.269-14.255-11.879-30.886-19.007-47.517-19.007-7.128 0-14.255 2.376-21.383 4.752-38.014 19.007-54.645 40.39-38.014 90.283 11.879 30.886 33.262 52.269 57.021 76.028 11.879 11.879 23.759 23.759 33.262 35.638 0 0 2.376 2.376 4.752 7.128l92.659-57.021-2.376-7.128zM746.023 715.285c-4.752-21.383-16.631-64.148-59.397-116.418-4.752-4.752-9.503-11.879-16.631-19.007-16.631-16.631-38.014-38.014-61.773-78.404l-4.752-9.503-92.659 59.397c9.503 26.135 21.383 66.524 14.255 128.297-7.128 68.9 7.128 104.538 30.886 154.432 33.262 66.524 71.276 104.538 104.538 104.538 4.752 0 9.503 0 11.879-2.376 19.007-4.752 35.638-19.007 47.517-40.39 33.262-52.269 38.014-133.049 26.135-180.566zM277.977 857.838c-9.503 2.376-19.007 4.752-28.51 4.752-80.78 0-156.807-97.411-180.566-163.935-7.128-23.759-23.759-68.9-16.631-137.8 0-9.503 2.376-16.631 4.752-26.135 4.752-26.135 9.503-52.269 7.128-97.411l-2.376-42.766c-2.376-30.886-4.752-59.397-7.128-85.531-7.128-42.766 0-83.155 21.383-111.666 14.255-19.007 30.886-28.51 52.269-30.886 7.128 0 11.879 0 19.007 0 47.517 0 73.652 23.759 87.907 71.276 9.503 38.014 2.376 71.276-4.752 104.538-4.752 16.631-7.128 30.886-7.128 47.517 0 0-4.752 57.021 57.021 130.673 47.517 57.021 57.021 99.787 61.773 159.183 4.752 99.787-14.255 159.183-64.148 178.19zM209.077 244.863c-14.255-52.269-42.766-57.021-80.78-52.269-11.879 0-26.135 7.128-35.638 21.383-16.631 21.383-23.759 57.021-16.631 92.659 4.752 28.51 7.128 57.021 9.503 87.907l2.376 21.383 106.914-21.383c0-2.376 0-4.752 0-4.752 2.376-16.631 4.752-33.262 9.503-49.893 4.752-30.886 11.879-61.773 4.752-95.035zM313.615 684.399c-7.128-54.645-14.255-92.659-57.021-147.304-40.39-49.893-54.645-92.659-59.397-118.794l-106.914 21.383c2.376 45.142-2.376 73.652-7.128 97.411-2.376 9.503-2.376 16.631-4.752 23.759-7.128 66.524 7.128 106.914 14.255 128.297 21.383 61.773 92.659 149.68 159.183 149.68 7.128 0 14.255 0 21.383-4.752 47.517-16.631 45.142-102.162 40.39-149.68zM824.427 140.325v-204.325h-23.759v90.283h-776.91v-90.283h-23.759v204.325h23.759v-90.283h776.91v90.283z" horiz-adv-x="824" />
<glyph unicode="&#xe60d;" d="M535.063 92.829v0c-15.375 0-27.676 3.075-43.051 9.225-49.201 24.601-95.327 64.577-64.577 153.754 15.375 46.126 49.201 79.952 79.952 110.703 15.375 15.375 30.751 27.676 43.051 43.051 0 0 46.126 58.426 33.826 181.429-12.3 98.402 9.225 147.604 43.051 215.255 58.426 113.778 123.003 166.054 187.58 147.604 33.826-9.225 61.502-30.751 83.027-67.652 43.051-73.802 49.201-187.58 30.751-255.231-9.225-30.751-21.526-89.177-83.027-159.904-6.15-9.225-15.375-15.375-24.601-24.601-21.526-21.526-46.126-46.126-73.802-95.327l-27.676-49.201c-18.45-33.826-36.901-64.577-52.276-98.402-24.601-64.577-79.952-110.703-132.228-110.703zM793.369 929.249c-43.051 0-92.252-49.201-135.303-135.303-33.826-64.577-52.276-110.703-43.051-199.88 15.375-138.378-36.901-202.955-39.976-202.955-12.3-15.375-27.676-30.751-43.051-46.126-30.751-30.751-58.426-58.426-73.802-98.402-21.526-61.502 0-89.177 49.201-113.778 9.225-3.075 18.45-6.15 27.676-6.15v0c39.976 0 86.102 36.901 110.703 92.252 15.375 33.826 33.826 64.577 52.276 101.477l27.676 49.201c30.751 52.276 55.351 79.952 79.952 101.477 9.225 9.225 15.375 15.375 21.526 24.601 55.351 67.652 67.652 119.928 76.877 150.679 15.375 64.577 9.225 169.129-27.676 233.706-18.45 27.676-36.901 46.126-64.577 52.276-9.225-3.075-12.3-3.075-18.45-3.075zM587.339 436.506l145.978-91.354-16.313-26.067-145.978 91.354 16.313 26.067zM123.003-64c-9.225 0-15.375 0-24.601 0-24.601 3.075-49.201 15.375-67.652 39.976-27.676 33.826-36.901 89.177-27.676 144.529 6.15 33.826 9.225 70.727 9.225 110.703l6.15 52.276c3.075 55.351-3.075 92.252-9.225 119.928-3.075 12.3-3.075 24.601-6.15 33.826-9.225 92.252 9.225 147.604 21.526 178.354 30.751 86.102 132.228 212.18 233.706 212.18 12.3 0 24.601-3.075 36.901-6.15 64.577-21.526 89.177-101.477 73.802-227.556-9.225-76.877-18.45-129.153-83.027-206.030-79.952-95.327-73.802-169.129-73.802-169.129 3.075-21.526 6.15-39.976 12.3-61.502 9.225-43.051 18.45-86.102 6.15-135.303-12.3-58.426-46.126-86.102-107.628-86.102zM258.306 803.171c-86.102 0-178.354-113.778-206.030-193.73-9.225-27.676-27.676-79.952-18.45-166.054 0-9.225 3.075-21.526 6.15-30.751 6.15-30.751 12.3-67.652 9.225-129.153l-3.075-55.351c-3.075-39.976-6.15-76.877-12.3-113.778-9.225-46.126 0-92.252 21.526-119.928 12.3-15.375 27.676-24.601 46.126-27.676 49.201-3.075 86.102 0 104.553 70.727 9.225 39.976 3.075 79.952-6.15 123.003-3.075 21.526-9.225 43.051-12.3 64.577 0 3.075-9.225 86.102 79.952 190.655 58.426 67.652 67.652 116.853 73.802 190.655 6.15 64.577 9.225 172.204-55.351 193.73-9.225 0-18.45 3.075-27.676 3.075zM35.356 290.023l169.191-32.116-5.735-30.213-169.191 32.116 5.735 30.213z" horiz-adv-x="941" />
<glyph unicode="&#xe60e;" d="M383.56 523.656l-31.67 17.595 246.323 418.749 246.323-418.749-28.151-17.595-218.172 365.966zM506.722-64h-506.722l253.361 429.306 28.151-17.595-221.691-376.522h446.9zM1199.945-64h-492.646v35.189h429.306l-218.172 376.522 31.67 17.595z" horiz-adv-x="1200" />
<glyph unicode="&#xe60f;" d="M582.005 789.791c-32.944 104.322-68.633 167.464-271.786 170.209-205.898-2.745-238.842-65.887-274.531-170.209-35.689-115.303-35.689-417.287-35.689-431.013l2.745-87.85c27.453-214.134 82.359-263.55 123.539-301.984 35.689-30.198 118.048-35.689 164.718-35.689 10.981 0 16.472 0 16.472 0h16.472c46.67 0 131.775 5.491 164.718 35.689 41.18 38.434 98.831 87.85 123.539 301.984l2.745 87.85c2.745 13.727 5.491 315.71-32.944 431.013zM296.493-36.547v0c-74.123 0-129.029 10.981-150.992 27.453-41.18 35.689-90.595 82.359-115.303 282.767l-2.745 85.105c0 2.745 0 310.22 32.944 420.032 30.198 93.34 54.906 148.247 233.351 150.992v-291.003h-137.265c-41.18 0-76.869-35.689-76.869-76.869v-277.276c0-41.18 35.689-76.869 76.869-76.869h137.265v-244.332zM159.228 237.984c-27.453 0-49.416 21.962-49.416 49.416v277.276c0 27.453 21.962 49.416 49.416 49.416h301.984c27.453 0 49.416-21.962 49.416-49.416v-277.276c0-27.453-21.962-49.416-49.416-49.416h-301.984zM590.241 358.777v-85.105c-24.708-203.153-76.869-247.078-115.303-282.767-19.217-19.217-74.123-27.453-148.247-27.453h-2.745v247.078h137.265c41.18 0 76.869 35.689 76.869 76.869v277.276c0 41.18-35.689 76.869-76.869 76.869h-137.265v291.003c178.445-5.491 203.153-57.651 233.351-150.992 35.689-112.558 32.944-420.032 32.944-422.777z" horiz-adv-x="618" />
<glyph unicode="&#xe610;" d="M1762.462 935.385l-256-256 108.308-113.231-241.231-246.154-132.923 132.923-78.769-78.769-206.769 211.692 113.231 113.231-260.923 260.923-256-256 108.308-108.308-270.769-275.692-132.923 132.923-256-256 256-256 256 256-88.615 88.615 265.846 275.692 118.154-118.154 113.231 113.231 206.769-216.615-147.692-142.769 256-256 256 256-88.615 88.615 241.231 246.154 118.154-113.231 256 256-256 260.923zM448 196.923l-187.077-187.077-187.077 187.077 187.077 187.077 187.077-187.077zM807.385 512l-187.077 187.077 187.077 187.077 187.077-187.077-187.077-187.077zM1427.692 196.923l-187.077-187.077-187.077 187.077 187.077 187.077 187.077-187.077zM1575.385 674.462l187.077 187.077 187.077-187.077-187.077-187.077-187.077 187.077z" horiz-adv-x="2023" />
<glyph unicode="&#xe611;" d="M495.046-64h-122.066c-10.172 0-16.954 3.391-23.735 10.172s-10.172 13.563-13.563 23.735l-13.563 88.159c-10.172 3.391-20.344 6.781-30.517 13.563l-67.815-50.861c-3.391-3.391-10.172-10.172-23.735-10.172-10.172 0-16.954 3.391-23.735 10.172-91.55 84.768-98.331 105.113-98.331 118.675 0 6.781 3.391 13.563 6.781 23.735 3.391 6.781 13.563 16.954 27.126 33.907 10.172 13.563 16.954 23.735 23.735 30.517-6.781 13.563-10.172 23.735-16.954 37.298l-88.159 13.563c-6.781 0-16.954 3.391-20.344 13.563-6.781 3.391-10.172 10.172-10.172 20.344v118.675c0 6.781 3.391 16.954 6.781 23.735 6.781 10.172 16.954 13.563 23.735 13.563l91.55 13.563c3.391 10.172 6.781 20.344 13.563 33.907-13.563 20.344-30.517 40.689-50.861 64.424-6.781 10.172-10.172 16.954-10.172 23.735 0 10.172 3.391 16.954 10.172 23.735 6.781 13.563 23.735 33.907 50.861 57.642 37.298 37.298 54.252 44.079 64.424 44.079 6.781 0 16.954-3.391 23.735-6.781l67.815-50.861c10.172 3.391 20.344 10.172 33.907 13.563 3.391 40.689 6.781 71.205 10.172 91.55 6.781 16.954 16.954 27.126 37.298 27.126h122.066c10.172 0 16.954-3.391 23.735-10.172s10.172-13.563 13.563-23.735l10.172-84.768c10.172-3.391 20.344-6.781 30.517-13.563l71.205 50.861c10.172 10.172 33.907 10.172 47.47 0 91.55-84.768 98.331-105.113 98.331-118.675 0-6.781-3.391-13.563-6.781-20.344-6.781-6.781-13.563-20.344-27.126-37.298-10.172-13.563-16.954-20.344-23.735-30.517 6.781-13.563 10.172-27.126 16.954-37.298l88.159-13.563c10.172-3.391 16.954-6.781 20.344-13.563s6.781-13.563 6.781-23.735v-122.066c0-6.781-3.391-16.954-6.781-23.735-6.781-10.172-16.954-13.563-23.735-13.563l-88.159-10.172c-3.391-10.172-6.781-20.344-13.563-33.907 13.563-16.954 30.517-40.689 50.861-64.424 6.781-6.781 10.172-16.954 10.172-23.735 0-13.563-6.781-20.344-10.172-23.735-10.172-10.172-27.126-30.517-54.252-57.642-33.907-37.298-50.861-44.079-61.033-44.079-6.781 0-16.954 3.391-23.735 6.781l-67.815 50.861c-10.172-3.391-20.344-10.172-33.907-13.563-3.391-44.079-10.172-74.596-13.563-91.55s-16.954-27.126-33.907-27.126zM288.212 108.927l10.172-3.391c16.954-10.172 33.907-13.563 47.47-20.344l10.172-3.391 16.954-111.894 125.457-3.391c0 0 3.391 0 3.391 0s0 0 0 3.391c3.391 16.954 10.172 50.861 13.563 98.331v10.172l10.172 3.391c16.954 3.391 33.907 10.172 47.47 20.344l10.172 3.391 84.768-64.424c0 0 3.391 0 3.391 0s10.172 3.391 40.689 33.907c27.126 27.126 44.079 44.079 50.861 57.642 0 3.391 0 3.391 0 6.781-23.735 27.126-44.079 54.252-57.642 74.596l-6.781 6.781 3.391 10.172c10.172 16.954 13.563 33.907 20.344 47.47l3.391 10.172 111.894 16.954v122.066l-111.894 20.344-3.391 10.172c-3.391 13.563-10.172 30.517-20.344 50.861l-6.781 10.172 6.781 6.781c6.781 10.172 16.954 23.735 30.517 40.689s20.344 27.126 27.126 33.907c0 3.391-10.172 23.735-88.159 94.94v0h-3.391l-84.768-64.424-10.172 3.391c-16.954 10.172-33.907 13.563-47.47 20.344l-10.172 3.391-16.954 108.503-125.457 3.391c-3.391 0-3.391 0-3.391-3.391-3.391-16.954-10.172-50.861-13.563-98.331v-10.172l-13.563-3.391c-16.954-6.781-33.907-13.563-47.47-20.344l-10.172-3.391-81.377 64.424c0 0-3.391 0-3.391 0s-10.172-3.391-40.689-33.907c-23.735-23.735-40.689-44.079-50.861-54.252 0-3.391 0-3.391 0-6.781 23.735-27.126 44.079-54.252 57.642-74.596l6.781-6.781-3.391-10.172c-10.172-16.954-16.954-33.907-20.344-47.47l-3.391-10.172-111.894-16.954v-122.066l111.894-20.344 3.391-10.172c3.391-16.954 13.563-33.907 20.344-50.861l3.391-10.172-3.391-6.781c-6.781-10.172-16.954-23.735-30.517-40.689s-20.344-27.126-27.126-33.907c0-3.391 10.172-23.735 88.159-94.94h3.391l84.768 64.424zM434.013 186.914c-50.861 0-94.94 16.954-128.848 54.252-37.298 37.298-54.252 77.987-54.252 128.848s16.954 94.94 54.252 128.848c37.298 37.298 77.987 54.252 128.848 54.252s94.94-16.954 128.848-54.252c37.298-37.298 54.252-77.987 54.252-128.848s-16.954-94.94-54.252-128.848c-33.907-37.298-77.987-54.252-128.848-54.252zM434.013 519.205c-40.689 0-77.987-13.563-105.113-44.079-30.517-30.517-44.079-64.424-44.079-105.113s13.563-77.987 44.079-105.113c30.517-30.517 64.424-44.079 105.113-44.079s74.596 13.563 105.113 44.079c30.517 30.517 44.079 64.424 44.079 105.113s-13.563 74.596-44.079 105.113c-30.517 30.517-64.424 44.079-105.113 44.079zM1098.596 448c-10.172 0-16.954 6.781-44.079 37.298-13.563 16.954-23.735 27.126-30.517 37.298-10.172 0-13.563 0-23.735 0-6.781-10.172-16.954-20.344-30.517-37.298-23.735-30.517-33.907-37.298-44.079-37.298-6.781 0-6.781 0-88.159 47.47-6.781 6.781-10.172 13.563-10.172 20.344 0 10.172 3.391 27.126 30.517 88.159-3.391 6.781-6.781 13.563-10.172 20.344-88.159 10.172-101.722 16.954-101.722 37.298v88.159c0 16.954 13.563 27.126 101.722 37.298 3.391 6.781 6.781 13.563 10.172 20.344-27.126 61.033-30.517 77.987-30.517 88.159 0 6.781 3.391 13.563 10.172 16.954 10.172 0 16.954 6.781 30.517 13.563s27.126 13.563 37.298 23.735c20.344 10.172 23.735 10.172 27.126 10.172 10.172 0 16.954-6.781 44.079-37.298 13.563-16.954 23.735-27.126 30.517-37.298 10.172 0 13.563 0 23.735 0 20.344 27.126 40.689 50.861 57.642 67.815l-3.391 3.391 13.563 3.391c6.781 0 6.781 0 88.159-47.47 6.781-6.781 10.172-13.563 10.172-20.344 0-10.172-3.391-27.126-30.517-88.159 3.391-6.781 6.781-13.563 10.172-20.344 88.159-10.172 101.722-16.954 101.722-37.298v-91.55c0-20.344-13.563-27.126-101.722-37.298-3.391-6.781-6.781-13.563-10.172-20.344 27.126-61.033 30.517-77.987 30.517-88.159 0-6.781-3.391-13.563-10.172-16.954-81.377-44.079-81.377-44.079-88.159-44.079zM868.026 519.205c37.298-20.344 54.252-30.517 64.424-37.298 3.391 3.391 10.172 10.172 16.954 20.344 20.344 23.735 30.517 37.298 33.907 44.079l6.781 10.172h10.172c16.954-3.391 20.344-3.391 33.907 0h10.172l6.781-10.172c3.391-6.781 13.563-16.954 33.907-44.079 10.172-10.172 13.563-16.954 16.954-20.344 10.172 3.391 27.126 16.954 64.424 37.298-3.391 10.172-10.172 30.517-30.517 77.987l-3.391 10.172 6.781 6.781c6.781 10.172 13.563 20.344 16.954 30.517v10.172h10.172c50.861 6.781 74.596 10.172 81.377 13.563v71.205c-10.172 3.391-30.517 6.781-81.377 13.563h-10.172l-3.391 10.172c-3.391 10.172-10.172 20.344-16.954 30.517l-6.781 6.781 3.391 10.172c20.344 47.47 27.126 67.815 30.517 77.987-37.298 20.344-54.252 30.517-64.424 37.298-13.563-20.344-30.517-40.689-47.47-67.815l-6.781-6.781h-10.172c-16.954 0-20.344 0-37.298 0h-10.172l-3.391 6.781c-6.781 6.781-16.954 23.735-33.907 44.079-10.172 10.172-13.563 16.954-16.954 20.344-3.391 0-6.781-3.391-10.172-6.781-13.563-6.781-23.735-13.563-37.298-20.344-6.781-3.391-13.563-6.781-16.954-10.172 3.391-10.172 10.172-30.517 30.517-77.987l3.391-10.172-6.781-6.781c-6.781-10.172-13.563-20.344-16.954-30.517l-3.391-10.172h-10.172c-50.861-6.781-74.596-10.172-81.377-13.563v-74.596c10.172 3.391 30.517-3.391 81.377-6.781h10.172l3.391-10.172c3.391-10.172 10.172-20.344 16.954-30.517l6.781-6.781-3.391-10.172c-20.344-47.47-27.126-67.815-30.517-77.987zM1017.219 603.974c-27.126 0-50.861 10.172-71.205 30.517-20.344 16.954-30.517 40.689-30.517 67.815s10.172 50.861 30.517 71.205c20.344 20.344 44.079 30.517 71.205 30.517s50.861-10.172 71.205-30.517c20.344-20.344 30.517-44.079 30.517-71.205s-10.172-50.861-30.517-71.205c-20.344-16.954-44.079-27.126-71.205-27.126zM1017.219 770.119c-16.954 0-33.907-6.781-47.47-20.344s-20.344-27.126-20.344-47.47c0-16.954 6.781-33.907 20.344-47.47 27.126-27.126 67.815-27.126 94.94 0 13.563 13.563 20.344 27.126 20.344 47.47 0 16.954-6.781 33.907-20.344 47.47s-30.517 20.344-47.47 20.344z" horiz-adv-x="1282" />
<glyph unicode="&#xe612;" d="M512 161.28c-43.52 0-245.76 156.16-289.28 245.76-71.68 140.8 0 222.72 35.84 250.88 20.48 17.92 61.44 35.84 112.64 35.84 38.4 0 94.72-12.8 143.36-66.56 38.4 40.96 89.6 64 143.36 64 51.2 0 97.28-20.48 117.76-38.4 40.96-38.4 97.28-117.76 28.16-245.76-33.28-58.88-115.2-130.56-148.48-156.16-28.16-20.48-112.64-89.6-143.36-89.6zM366.080 670.72c-43.52 0-76.8-15.36-94.72-30.72-30.72-23.040-92.16-94.72-28.16-220.16 46.080-92.16 240.64-232.96 268.8-232.96 12.8 0 69.12 35.84 125.44 81.92 33.28 25.6 112.64 94.72 140.8 148.48 61.44 110.080 10.24 181.76-23.040 215.040-17.92 15.36-56.32 33.28-99.84 33.28-51.2 0-99.84-23.040-133.12-66.56l-10.24-10.24-10.24 12.8c-46.080 56.32-97.28 69.12-135.68 69.12zM512-64c-281.6 0-512 230.4-512 512s230.4 512 512 512 512-230.4 512-512-230.4-512-512-512zM512 934.4c-268.8 0-486.4-217.6-486.4-486.4s217.6-486.4 486.4-486.4c268.8 0 486.4 217.6 486.4 486.4s-217.6 486.4-486.4 486.4z" />
<glyph unicode="&#xe613;" d="M460.381 217.809c-47.433-2.79-25.112-72.545-30.692-119.978-72.545 47.433 8.371 245.537-58.594 295.76-19.531-78.125-22.322-175.782-72.545-223.215-33.482 16.741-25.112 69.755-47.433 92.076-25.112-106.027-111.608-270.649 16.741-326.452-142.3 2.79-259.488 103.237-267.858 237.166-8.371 142.3 153.46 265.068 103.237 429.689 75.335-33.482 100.447-117.188 89.286-237.166 78.125 75.335 0 198.104 0 295.76 2.79 145.090 55.804 248.327 164.621 298.55-64.174-184.153 2.79-385.046 119.978-474.332-5.58 117.188 55.804 172.992 133.929 206.474-69.755-292.97 237.166-605.471-133.929-756.142 44.643 55.804 5.58 178.572-16.741 281.809z" horiz-adv-x="661" />
<glyph unicode="&#xe614;" d="M247.060 774.705c52.013 13.003 81.27 65.016 68.267 117.029s-65.016 81.27-117.029 68.267c-52.013-16.254-81.27-68.267-68.267-120.279 13.003-48.762 65.016-81.27 117.029-65.016zM139.784 394.362c0 3.251-3.251 13.003-3.251 13.003l-39.010 110.527 81.27 107.276c16.254 22.756 13.003 52.013-6.502 71.517-22.756 16.254-48.762 9.752-65.016-9.752l-94.273-130.032c-9.752-13.003-13.003-26.006-9.752-42.26 0-16.254 29.257-107.276 45.511-139.784 3.251-6.502 0 0 6.502-13.003s26.006-42.26 61.765-26.006c32.508 19.505 26.006 45.511 22.756 58.514zM448.61 387.86c-6.502 26.006-26.006 39.010-45.511 42.26l-97.524 6.502c0 6.502 0 9.752 0 13.003 0 39.010 0 139.784-6.502 169.041-9.752 32.508-19.505 123.53-100.775 113.778-9.752 0-22.756 0-26.006-3.251 0 0 13.003-3.251 29.257-22.756 19.505-22.756 22.756-65.016 6.502-87.771l-78.019-107.276 35.759-120.279c0 0 19.505-48.762-29.257-71.517v-19.505l-19.505-256.813c-3.251-29.257 19.505-55.263 45.511-55.263 29.257-3.251 55.263 19.505 55.263 45.511l29.257 302.324 110.527-9.752 13.003-113.778c3.251-9.752 3.251-29.257 19.505-39.010s32.508-13.003 52.013-6.502c26.006 9.752 32.508 32.508 29.257 58.514l-22.756 162.54zM529.879 602.413c-3.251 0-9.752 0-9.752 0l-123.53 6.502-91.022 91.022c0 0 13.003-32.508 22.756-74.768 6.502-26.006 9.752-68.267 6.502-81.27l13.003-13.003c6.502-13.003 19.505-19.505 32.508-19.505 9.752 0 113.778-3.251 146.286 0 6.502 0 0 0 13.003 0s39.010 9.752 39.010 45.511c-3.251 42.26-39.010 45.511-48.762 45.511zM747.683 254.578h-221.054v-146.286h-191.797v-172.292h58.514v110.527h191.797v146.286h162.54z" horiz-adv-x="748" />
<glyph unicode="&#xe615;" d="M510.082-64l-510.082 513.918 510.082 510.082 510.082-510.082-510.082-513.918zM53.693 449.918l456.39-456.39 456.39 456.39-456.39 456.39-456.39-456.39zM970.307-48.659l-26.846 26.846 467.895 471.73-467.895 467.895 26.846 26.846 498.577-494.742z" horiz-adv-x="1469" />
<glyph unicode="&#xe616;" d="M1154.415 317.585c-57.962 0-294.642 188.377-347.774 289.811-86.943 169.057 0 270.491 43.472 304.302 28.981 24.151 77.283 48.302 140.075 48.302 48.302 0 111.094-14.491 169.057-72.453 43.472 43.472 101.434 67.623 169.057 67.623s120.755-24.151 144.906-48.302c38.642-38.642 120.755-140.075 33.811-299.472-38.642-67.623-125.585-144.906-173.887-183.547-53.132-38.642-140.075-106.264-178.717-106.264zM990.189 911.698c-48.302 0-86.943-19.321-106.264-33.811-38.642-33.811-101.434-111.094-28.981-246.34 53.132-101.434 265.66-260.83 304.302-265.66 14.491 0 72.453 38.642 140.075 91.774 38.642 28.981 130.415 111.094 164.226 173.887 62.792 115.925 19.321 193.208-24.151 236.679-19.321 19.321-62.792 33.811-111.094 33.811-57.962 0-111.094-24.151-149.736-72.453l-19.321-24.151-19.321 24.151c-53.132 67.623-111.094 82.113-149.736 82.113zM1536 134.038v-198.038h-1536v198.038h48.302v-149.736h695.547v289.811h48.302v-289.811h695.547v149.736z" horiz-adv-x="1541" />
<glyph unicode="&#xe617;" d="M615.94-64c-84.692 0-469.654 300.271-558.195 473.504-134.737 273.323 3.85 427.308 69.293 481.203 38.496 34.647 119.338 69.293 211.729 69.293 76.992 0 184.782-23.098 277.173-130.887 73.143 80.842 173.233 127.038 281.023 127.038 100.090 0 184.782-38.496 223.278-73.143 76.992-76.992 188.632-230.977 53.895-473.504-61.594-111.639-219.429-250.226-284.872-304.12-50.045-38.496-211.729-169.383-273.323-169.383zM338.767 921.504c-84.692 0-153.985-30.797-188.632-61.594-57.744-46.195-180.932-184.782-57.744-431.158 92.391-180.932 469.654-454.256 523.549-454.256 26.947 0 134.737 69.293 246.376 161.684 65.444 50.045 219.429 184.782 277.173 292.571 119.338 219.429 23.098 358.015-46.195 423.459-34.647 30.797-107.789 65.444-196.331 65.444-103.94 0-196.331-46.195-265.624-130.887l-15.398-19.248-15.398 19.248c-88.541 111.639-192.481 134.737-261.774 134.737z" horiz-adv-x="1236" />
<glyph unicode="&#xe618;" d="M1035.977 453.988l-517.988-517.988-517.988 517.988 365.287 362.292h-149.708v29.942h191.626v-191.626h-29.942v134.737l-335.345-335.345 476.070-476.070 476.070 476.070-488.047 485.053 20.959 20.959z" horiz-adv-x="1036" />
<glyph unicode="&#xe619;" d="M717.134 579.752c0 6.671-3.336 10.007-6.671 16.678-16.678 23.349-46.697 30.020-70.046 13.342v0l-53.368-36.691-46.697-30.020-10.007 30.020-23.349 53.368c0-13.342 0-26.684 0-36.691 0-3.336 0-10.007 0-13.342 0-23.349-13.342-83.388-26.684-146.762 6.671-6.671 13.342-13.342 23.349-13.342 13.342-3.336 30.020-3.336 43.362 6.671l150.098 103.401c3.336 0 3.336 3.336 6.671 3.336 10.007 13.342 16.678 33.355 13.342 50.033zM537.016 322.919c0 0-93.394 46.697-100.065 50.033 10.007 40.026 43.362 176.782 43.362 206.801 0 36.691 13.342 136.756-73.381 150.098-3.336 0-3.336 0-6.671 0 6.671-6.671 13.342-16.678 16.678-23.349 16.678-36.691 0-80.052-36.691-96.73l-100.065-43.362c0-6.671-3.336-10.007-3.336-16.678l6.671-10.007 36.691-50.033c23.349-33.355 16.678-76.717-16.678-100.065-6.671-6.671-13.342-10.007-23.349-10.007-6.671-3.336-13.342-3.336-20.013-3.336-3.336 0 0-3.336-3.336-3.336l-40.026-140.091-166.775-26.684c-30.020-6.671-60.039-30.020-50.033-70.046s40.026-53.368 76.717-46.697l200.13 30.020c23.349 6.671 43.362 23.349 50.033 50.033l30.020 93.394 106.736-56.704-3.336-196.795c0-30.020 13.342-70.046 53.368-73.381 36.691 0 53.368 26.684 53.368 63.375v223.479c0 43.362 3.336 83.388-30.020 100.065zM296.86 473.016v0l-36.691 53.368-33.355 43.362 30.020 13.342 106.736 46.697c26.684 10.007 36.691 40.026 26.684 66.71s-40.026 36.691-66.71 26.684l-56.704-26.684-136.756-60.039c-13.342-6.671-23.349-16.678-30.020-33.355-3.336-13.342 0-30.020 6.671-43.362l106.736-146.762c0-3.336 3.336-3.336 3.336-6.671 13.342-13.342 33.355-20.013 50.033-13.342 6.671 0 10.007 3.336 16.678 6.671 23.349 20.013 30.020 53.368 13.342 73.381zM493.655 753.199c56.704 10.007 93.394 63.375 83.388 120.078s-63.375 93.394-120.078 83.388c-56.704-10.007-93.394-63.375-83.388-120.078s63.375-93.394 120.078-83.388z" horiz-adv-x="717" />
<glyph unicode="&#xe61a;" d="M0 960v-1024h1024v1024h-1024zM986.764-26.764h-949.527v469.178h227.142c7.447-141.498 122.88-253.207 268.102-253.207 141.498 0 260.655 111.709 268.102 253.207h186.182v-469.178zM301.615 453.585c0 126.604 104.262 230.865 230.865 230.865s230.865-104.262 230.865-230.865c0-126.604-104.262-230.865-230.865-230.865s-230.865 104.262-230.865 230.865zM986.764 479.651h-186.182c-11.171 137.775-126.604 245.76-268.102 245.76s-256.931-107.985-268.102-245.76h-227.142v443.113h673.978v-253.207h275.549v-189.905zM986.764 706.793h-238.313v215.971h238.313v-215.971z" />
<glyph unicode="&#xe61b;" d="M1552.588 77.956l-35.090-60.611-741.044 428.421-738.492-433.206-35.409 60.611 704.040 412.79-706.592 408.643 35.090 60.93 741.044-428.74 738.492 433.206 35.409-60.611-704.040-412.79zM390.779 218.956l-66.034-38.599-0.319 0.319 66.034 38.599zM654.913 374.31v-0.319l-70.181-41.151v0.319zM584.733 299.664v-224.259l-169.072 125.049-65.715-38.599 304.967-225.854v404.815zM321.555 679.915l-43.384-32.219h-261.264v-432.568h172.262l135.576 79.432v300.501l62.844 46.574-66.034 38.28zM254.564 285.308h-167.477v292.207h167.477v-292.207zM491.903 718.834l92.83 68.586v-122.497l70.181-40.513v302.415l-229.363-169.71zM584.733 526.794v-79.751l68.267 40.194z" horiz-adv-x="1553" />
<glyph unicode="&#xe61c;" d="M890.331 783.366l-31.030 52.513-50.126 19.096-288.821 105.026-338.946-124.121-181.408-312.69 62.061-355.655 276.886-231.534h360.429l276.886 231.534 62.061 355.655-147.991 260.177zM954.779 181.855l-262.564-219.599h-343.72l-262.564 219.599-62.061 336.559 171.86 298.368 322.238 116.96 279.273-102.639 45.352-14.322 26.256-45.352 145.604-250.629-59.674-338.946z" horiz-adv-x="1038" />
<glyph unicode="&#xe61d;" d="M1018.509-32.887c7.321-7.321 7.321-18.302 0-25.623-3.66-3.66-8.236-5.491-12.811-5.491s-9.151 1.83-12.811 5.491l-480.429 480.429-481.344-480.429c-3.66-3.66-8.236-5.491-12.811-5.491s-9.151 1.83-12.811 5.491c-7.321 7.321-7.321 18.302 0 25.623l480.429 480.429-480.429 481.344c-7.321 7.321-7.321 18.302 0 25.623s18.302 7.321 25.623 0l481.344-480.429 481.344 480.429c7.321 7.321 19.217 7.321 25.623 0 7.321-7.321 7.321-18.302 0-25.623l-481.344-481.344 480.429-480.429z" />
<glyph unicode="&#xe61e;" d="M405.292 960v-317.142h-405.292v-706.858h991.855v317.142h405.292v706.858h-991.855zM478.198 569.952h440.751v-244.236h-440.751v244.236zM918.949 8.906h-846.043v561.046h332.386v-317.142h513.657v-243.904zM1323.909 326.048h-332.054v316.81h-513.657v244.236h846.043v-561.046z" horiz-adv-x="1397" />
<glyph unicode="&#xe61f;" d="M245.137 651.332h-245.137v-406.363h245.137l353.92-262.218v930.8l-353.92-262.218zM65.929 585.402h157.331v-274.505h-157.331v274.505zM533.127 113.409l-244.238 180.706v307.47l244.238 180.706v-668.881zM780.961 214.701l-45.551 47.649 79.714 75.819v219.364l-80.014 75.819 45.251 47.948 100.692-95.597v-275.704zM972.455 66.66l-44.952 47.948 145.344 136.354v393.777l-145.044 136.354 44.952 48.248 166.022-156.132v-450.716zM1129.187-64l-45.251 47.948 201.683 189.696v548.411l-201.683 189.996 45.251 47.948 222.361-209.475v-605.35z" horiz-adv-x="1352" />
<glyph unicode="&#xe620;" d="M329.152 688.168h62.576v-480.587h-62.576v480.587zM634.525 688.168h62.576v-480.587h-62.576v480.587zM1024.501-64h-1024.501v1024h1024.501v-1024zM51.813-12.187h920.874v920.374h-920.874v-920.374z" horiz-adv-x="1025" />
<glyph unicode="&#xe621;" d="M1015.937 543.748c-2.016 0-5.039 0-7.055-1.008l-133.039 230.803c15.118 10.079 24.189 27.213 24.189 46.362 0 31.244-25.197 56.441-56.441 56.441-23.181 0-42.331-14.11-51.402-33.26l-248.945 90.709c0 1.008 0 2.016 0 3.024 0 13.102-10.079 23.181-23.181 23.181s-23.181-10.079-23.181-23.181c0-1.008 0-2.016 0-3.024l-281.197-101.795c-4.031 7.055-11.087 11.087-20.157 11.087-13.102 0-23.181-10.079-23.181-23.181 0-7.055 3.024-13.102 7.055-17.134l-149.165-260.031c-2.016 1.008-5.039 1.008-7.055 1.008-13.102 0-23.181-10.079-23.181-23.181 0-12.094 10.079-22.173 22.173-23.181l52.409-296.315c-9.071-3.024-15.118-12.094-15.118-22.173 0-13.102 10.079-23.181 23.181-23.181 6.047 0 11.087 2.016 15.118 5.039l230.803-193.512c-1.008-3.024-2.016-6.047-2.016-9.071 0-13.102 10.079-23.181 23.181-23.181 11.087 0 20.157 8.063 22.173 18.142h294.299c2.016-10.079 11.087-18.142 22.173-18.142 13.102 0 23.181 10.079 23.181 23.181 0 3.024-1.008 6.047-2.016 9.071 0 0 0 0 0 0l230.803 193.512c4.031-3.024 9.071-5.039 15.118-5.039 13.102 0 23.181 10.079 23.181 23.181 0 10.079-6.047 18.142-15.118 21.165l52.409 296.315c12.094 1.008 22.173 11.087 22.173 23.181 1.008 14.11-9.071 24.189-22.173 24.189zM954.457 203.087c-12.094-1.008-22.173-11.087-22.173-23.181 0-3.024 1.008-7.055 2.016-10.079l-229.795-193.512c-4.031 4.031-9.071 6.047-15.118 6.047-11.087 0-20.157-8.063-22.173-18.142h-295.307c-2.016 10.079-11.087 18.142-22.173 18.142-6.047 0-11.087-2.016-15.118-5.039l-230.803 192.504c1.008 3.024 2.016 6.047 2.016 10.079 0 12.094-9.071 22.173-21.165 23.181l-52.409 296.315c8.063 4.031 14.11 12.094 14.11 21.165 0 7.055-3.024 12.094-7.055 17.134l150.173 260.031c2.016-1.008 5.039-1.008 7.055-1.008 13.102 0 23.181 10.079 23.181 23.181 0 1.008 0 2.016 0 2.016l280.189 102.803c4.031-6.047 11.087-11.087 19.15-11.087s15.118 4.031 19.15 11.087l248.945-90.709c0-5.039-1.008-9.071-1.008-14.11 0-31.244 25.197-56.441 56.441-56.441 8.063 0 16.126 2.016 24.189 5.039l133.039-229.795c-4.031-4.031-7.055-10.079-7.055-17.134 0-10.079 6.047-18.142 14.11-21.165l-52.409-297.323z" horiz-adv-x="1039" />
<glyph unicode="&#xe622;" d="M0 960h1209.806v-41.29h-1209.806v41.29zM0 468.645h1209.806v-41.29h-1209.806v41.29zM0-22.71h1209.806v-41.29h-1209.806v41.29z" horiz-adv-x="1210" />
<glyph unicode="&#xe623;" d="M2702.803 2.177v20.898h17.415c6.966 0 13.932 0 13.932-10.449s-6.966-10.449-13.932-10.449h-17.415zM2744.599 12.626c0 13.932-10.449 13.932-20.898 13.932h-24.381v-59.211h6.966v27.864h10.449c6.966-10.449 10.449-17.415 17.415-27.864h6.966c-6.966 10.449-10.449 17.415-17.415 27.864 13.932 3.483 20.898 6.966 20.898 17.415zM2716.735-46.585c-24.381 0-45.279 20.898-45.279 45.279s17.415 45.279 45.279 45.279c24.381 0 45.279-20.898 45.279-45.279s-20.898-45.279-45.279-45.279zM2716.735 50.939c-27.864 0-52.245-24.381-52.245-52.245s24.381-52.245 52.245-52.245c27.864 0 52.245 24.381 52.245 52.245 0 31.347-24.381 52.245-52.245 52.245zM1051.864 190.259c10.449-135.837-101.007-250.776-236.844-257.741-142.803-3.483-247.293 118.422-219.429 257.741h456.272zM1037.932 252.952c-34.83 83.592-114.939 135.837-205.497 132.354s-170.667-55.728-212.463-132.354h417.959zM139.32 190.259h243.81c17.415 0 31.347 13.932 34.83 31.347 0 17.415-10.449 31.347-27.864 31.347h-296.054c13.932 34.83 24.381 69.66 38.313 107.973 3.483 10.449 10.449 13.932 20.898 13.932h257.741c87.075 0 153.252-69.66 146.286-156.735-6.966-83.592-80.109-146.286-163.701-146.286-52.245 0-107.973 0-160.218 0-13.932 0-27.864-10.449-31.347-20.898-10.449-27.864-20.898-55.728-27.864-83.592-3.483-10.449-10.449-13.932-20.898-13.932h-125.388c-20.898 0-34.83 20.898-27.864 38.313 17.415 48.762 34.83 94.041 48.762 142.803 13.932 31.347 52.245 55.728 90.558 55.728zM2410.231-53.551c-10.449 34.83-17.415 66.177-27.864 101.007-3.483 13.932-13.932 20.898-27.864 20.898s-24.381 0-38.313 0c-13.932 0-27.864-10.449-31.347-20.898-10.449-27.864-20.898-55.728-27.864-83.592-3.483-10.449-10.449-13.932-20.898-13.932h-118.422c-20.898 0-34.83 20.898-27.864 38.313 17.415 48.762 34.83 94.041 48.762 142.803 13.932 34.83 48.762 62.694 87.075 62.694h243.81c17.415 0 31.347 13.932 34.83 31.347 0 17.415-10.449 31.347-27.864 31.347h-292.571c13.932 34.83 24.381 69.66 38.313 107.973 3.483 10.449 10.449 13.932 20.898 13.932h257.741c87.075 0 153.252-69.66 146.286-156.735-6.966-59.211-41.796-107.973-94.041-132.354 13.932-45.279 24.381-90.558 38.313-139.32h-181.116zM1333.986 252.952c10.449 31.347 20.898 62.694 34.83 94.041 3.483 13.932-3.483 27.864-17.415 27.864h-128.871c-10.449 0-17.415-6.966-20.898-13.932-13.932-34.83-24.381-69.66-38.313-107.973h170.667zM1441.959-53.551h-348.299c-20.898 0-34.83 20.898-27.864 38.313 24.381 69.66 48.762 135.837 73.143 205.497h174.15c-6.966-24.381-17.415-45.279-24.381-69.66-6.966-20.898 6.966-38.313 27.864-38.313h146.286c20.898 0 34.83-20.898 27.864-38.313l-27.864-80.109c-3.483-10.449-10.449-17.415-20.898-17.415zM1845.986 367.891c-31.347-38.313-62.694-76.626-97.524-114.939h261.224c-3.483 34.83-6.966 69.66-10.449 104.49 0 10.449-10.449 17.415-20.898 17.415h-114.939c-6.966 0-13.932-3.483-17.415-6.966zM1880.816-53.551h132.354c13.932 0 24.381 10.449 24.381 24.381-6.966 73.143-13.932 146.286-20.898 219.429h-316.952c-55.728-66.177-107.973-128.871-163.701-195.048-17.415-20.898-3.483-48.762 20.898-48.762h104.49c6.966 0 13.932 3.483 17.415 6.966 27.864 34.83 59.211 66.177 87.075 101.007 6.966 6.966 17.415 10.449 24.381 10.449h34.83c13.932 0 27.864-10.449 27.864-24.381 3.483-24.381 3.483-52.245 6.966-76.626 0-6.966 10.449-17.415 20.898-17.415zM3120.762-57.034h-135.837l428.408 1010.068h146.286l431.891-1010.068h-146.286l-132.354 316.952h-334.367l34.83 104.49h254.259l-184.599 459.755-362.231-881.197zM4078.585 918.204c94.041 27.864 188.082 41.796 282.122 41.796 243.81 0 365.714-90.558 365.714-275.156 0-111.456-45.279-188.082-132.354-229.878 87.075-41.796 132.354-118.422 132.354-229.878 0-191.565-121.905-289.088-365.714-289.088-94.041 0-188.082 13.932-282.122 41.796v111.456c94.041-31.347 188.082-48.762 282.122-48.762 156.735 0 233.361 62.694 233.361 184.599 0 118.422-59.211 177.633-177.633 177.633h-233.361v104.49h229.878c121.905 0 181.116 59.211 181.116 177.633 0 111.456-76.626 170.667-233.361 170.667-94.041 0-188.082-17.415-282.122-48.762v111.456zM4900.571 444.517c0 341.333 146.286 515.483 435.374 515.483 285.605 0 428.408-170.667 428.408-515.483 0-341.333-142.803-512-428.408-512-289.088 3.483-435.374 174.15-435.374 512zM5335.946 40.49c195.048 0 292.571 135.837 292.571 410.993 0 268.19-97.524 404.027-292.571 404.027-198.531 0-299.537-135.837-299.537-404.027 0-275.156 101.007-410.993 299.537-410.993zM5921.088 444.517c0 344.816 146.286 515.483 438.857 515.483 285.605 0 428.408-170.667 428.408-515.483 0-341.333-142.803-512-428.408-512-292.571 3.483-438.857 174.15-438.857 512zM6359.946 40.49c195.048 0 292.571 135.837 292.571 410.993 0 268.19-97.524 404.027-292.571 404.027-198.531 0-299.537-135.837-299.537-404.027 0-275.156 97.524-410.993 299.537-410.993z" horiz-adv-x="6788" />
<glyph unicode="&#xe624;" d="M557.241 877.302h53.511v-99.724h-53.511v99.724zM476.874 862.078l34.439-94.625-50.284-18.301-34.439 94.625 50.284 18.301zM352.868 801.145l64.728-77.134-40.989-34.397-64.728 77.134 40.989 34.397zM255.030 700.871l87.204-50.349-26.755-46.34-87.204 50.349 26.755 46.34zM197.541 575.482l99.167-17.491-9.295-52.697-99.167 17.491 9.295 52.697zM702.037 862.006l50.284-18.306-34.449-94.625-50.284 18.306 34.449 94.625zM825.943 801.279l40.995-34.397-64.728-77.144-40.995 34.397 64.728 77.144zM923.806 700.978l26.755-46.34-87.204-50.349-26.755 46.34 87.204 50.349zM981.412 575.64l9.289-52.697-99.167-17.481-9.289 52.697 99.167 17.481zM884.629 960h-589.834l-294.795-512 294.795-512h589.834l294.795 512-294.795 512zM61.781 448l263.905 458.489h528.053l263.905-458.489-97.292-169.045h-286.282l-146.911 432.707-146.911-432.707h-281.174l-97.292 169.045zM677.64 278.955h-180.963l90.482 266.337 90.482-266.337zM853.739-10.489h-528.053l-135.966 235.933h799.742l-135.723-235.933z" horiz-adv-x="1179" />
<glyph unicode="&#xe625;" d="M469.688 144.93h-284.647c-71.263 0-129.569 57.901-129.569 128.759v338.094c0 70.858 58.306 128.354 129.569 128.354h284.647c70.858 0 128.759-57.496 128.759-128.354v-338.094c0-70.858-57.901-128.759-128.759-128.759zM185.041 736.089c-69.238 0-125.52-55.877-125.52-124.305v-338.094c0-68.834 56.282-124.71 125.52-124.71h284.647c68.834 0 124.71 55.877 124.71 124.71v338.094c0 68.429-55.877 124.305-124.71 124.305h-284.647zM458.35 165.985h-262.782c-65.999 0-119.446 53.447-119.446 119.446v321.493c0 63.975 51.423 112.563 119.446 112.563h262.782c68.024 0 119.446-48.588 119.446-112.563v-321.493c0-65.999-53.447-119.446-119.446-119.446zM195.568 715.439c-65.594 0-115.397-46.564-115.397-108.514v-321.493c0-63.57 51.828-115.397 115.397-115.397h262.782c63.57 0 115.397 51.828 115.397 115.397v321.493c0 61.95-49.803 108.514-115.397 108.514h-262.782zM522.73 276.119h-399.234v298.819h399.234v-298.819zM135.643 288.266h374.94v274.524h-374.94v-274.524zM338.904 736.089h-24.699v211.359h24.699v-211.359zM318.254 740.138h16.601v203.261h-16.601v-203.261zM338.904-51.853h-24.699v201.237h24.699v-201.237zM318.254-47.804h16.601v193.139h-16.601v-193.139zM337.689-64h-6.074v5.264h-8.503v-5.264h-6.074c-101.226 0-161.151 16.196-199.617 54.257-39.276 38.466-57.091 100.821-77.741 173.299-6.074 21.055-13.767 75.312-15.791 102.036-4.859 1.215-11.337 4.049-12.957 9.313-8.098 1.62-10.932 6.883-10.932 11.337v59.116c0 4.454 3.644 9.313 10.932 10.932 1.62 4.049 5.669 6.478 9.313 8.098-0.81 57.496-1.62 147.79-2.025 168.845-3.644 1.62-6.478 4.859-7.288 8.503-5.264 1.62-10.932 4.859-10.932 10.527v59.116c0 5.669 5.669 8.908 10.527 10.527 0.405 5.264 4.454 9.313 9.718 9.313h2.834c0 1.215 0.405 2.429 0.405 3.644s0.405 2.834 0.405 4.454c1.215 23.484 9.313 83.005 16.196 104.465 43.73 153.863 69.643 216.623 276.144 216.623h6.074v-11.742h8.503v11.742h6.074c207.31 0 228.77-62.76 280.193-214.194l0.81-2.429c12.147-35.631 16.601-95.557 17.411-113.373 3.239-1.62 6.478-4.859 7.288-8.503 8.098-1.62 10.932-6.883 10.932-11.337v-59.116c0-4.454-3.239-9.313-10.932-10.932-0.81-3.644-3.239-6.478-6.074-8.098 0-2.429 0-5.669 0-9.313 0-7.288 0-17.006 0-26.724 3.239-1.62 5.264-4.454 6.478-7.288 7.693-1.62 10.932-6.074 10.932-10.932v-59.116c0-4.454-3.239-8.908-10.123-10.527 0-1.62-0.405-4.049-2.429-6.074-1.215-1.215-2.429-2.025-4.049-2.429 0-6.074 0-12.552 0-18.626s0-11.742 0-17.816c2.834-1.62 4.859-4.454 5.669-7.288 7.693-1.62 10.932-6.074 10.932-10.932v-59.521c0-4.454-3.644-9.718-10.932-11.337-1.215-3.239-4.049-6.074-8.098-8.098-2.025-25.509-12.147-80.981-18.221-103.25-44.944-161.556-72.073-227.151-278.978-227.151zM310.966-46.589h32.797v-5.264c94.342 0.81 150.219 15.791 186.255 50.613 36.036 34.417 53.447 89.079 75.717 168.035 6.074 22.27 17.006 82.6 17.816 104.87l0.405 4.859 4.454 0.81c1.62 0.405 2.834 0.81 3.239 1.215v7.693h6.074c2.429 0 3.644 0.405 4.454 0.81v56.686c-0.81 0.405-2.025 0.81-4.454 0.81h-6.074v8.503c0 0-0.405 0.405-1.215 0.405l-4.859 1.215v4.859c0 6.883 0 14.172 0 21.46 0 7.693-0.405 15.791-0.405 23.484v6.074h6.074c0 0 0 0 0 0 0 0.405 0 0.405 0 0.81v8.098h6.074c2.429 0 3.644 0.405 4.454 0.81v55.877c-0.81 0.405-2.025 0.81-4.454 0.81h-6.074v8.098c-0.405 0.405-1.215 0.81-2.025 1.215l-4.859 1.215v4.859c0 18.221 0 40.895-0.405 43.325l6.074 0.81v6.478c0.405 0 0.81 0.405 0.81 0.81v8.503h6.074c2.429 0 3.644 0.405 4.454 0.81v56.686c-0.81 0.405-2.025 0.81-4.454 0.81h-6.074v8.503c0 0-1.215 0.81-1.62 0.81h-6.074v6.074c0 6.478-4.049 76.122-17.006 114.183l-0.81 2.429c-50.613 148.195-69.643 204.881-262.782 206.096v-11.742h-32.797v11.742c-94.342-0.405-150.219-14.981-185.041-47.374-35.227-32.392-51.018-82.195-73.287-160.342-6.074-20.65-14.172-79.361-15.386-102.036 0-2.025-0.405-3.644-0.405-4.859-0.405-2.429-0.405-4.859-0.81-8.908l-0.405-5.669h-11.337v-8.098h-6.074c-1.215 0-3.239-0.81-4.454-1.215v-55.472c1.215-0.405 3.239-1.215 4.454-1.215h6.074v-8.503c0 0 1.215-0.81 1.62-0.81h6.074v-6.074c0 0 1.215-112.968 2.025-177.752v-4.859l-4.859-0.81c-2.025-0.405-4.049-1.62-5.264-2.025v-7.288h-6.074c-2.429 0-3.644-0.405-4.454-0.81v-56.686c0.81-0.405 2.025-0.81 4.454-0.81h6.074v-7.288c1.62-1.215 4.859-2.025 6.074-2.025h6.883l0.405-5.669c1.215-23.079 9.313-82.195 15.386-104.465 23.484-81.79 39.276-133.618 74.502-168.035 35.227-34.822 90.698-49.803 185.041-50.613v4.454zM25.916 624.343l3.64-0.167-4.022-87.776-3.64 0.167 4.022 87.776zM24.294 265.996l-0.405 4.049c-0.81 13.362-2.834 38.466-3.644 88.674l10.527 0.405c1.215-50.208 2.834-74.907 3.644-88.269l0.405-4.049-10.527-0.81zM29.153 530.398l-10.527 0.405c0 0.405 1.215 41.705 4.859 107.299l10.527-0.405c-3.644-65.999-4.859-106.894-4.859-107.299zM636.103 536.066l-10.527 0.81c0 0.405 2.025 29.153-0.81 91.103l10.527 0.405c2.834-62.355 0.81-91.103 0.81-92.318zM625.575 491.122h10.527v-89.888h-10.527v89.888zM626.543 358.445l10.524-0.241-2.001-87.433-10.524 0.241 2.001 87.433zM457.945 626.765v2.025h1.62c0.81 0 1.62 0 1.62-1.215 0-0.81-0.81-1.215-1.62-1.215h-1.62v0.405zM461.994 627.979c0 1.215-1.215 1.62-2.025 1.62h-2.834v-6.074h0.81v2.834h1.215c0.405-0.81 1.215-2.025 1.62-2.834h0.81c-0.405 0.81-1.215 2.025-2.025 2.834 2.025 0 2.834 0.405 2.429 1.62zM459.565 621.906c-2.429 0-4.454 2.025-4.454 4.859 0 2.429 2.025 4.859 4.454 4.859s4.454-2.025 4.454-4.859c0-2.834-2.025-4.859-4.454-4.859zM459.565 632.028c-2.834 0-5.264-2.429-5.264-5.264s2.429-5.264 5.264-5.264 5.264 2.429 5.264 5.264-2.429 5.264-5.264 5.264zM289.506 646.605c1.215-13.767-10.527-26.319-24.294-26.724-14.577-0.405-25.104 12.957-22.27 26.724h46.564zM287.886 653.488c-3.239 6.883-11.742 14.172-21.055 13.767s-17.411-6.883-21.865-13.767h42.92zM197.188 646.605h23.889c1.62 0 3.239 1.62 3.239 3.239s-1.215 3.644-2.834 3.644h-29.963c1.215 3.644 2.429 6.074 3.644 9.718 0.405 0.81 1.215 0.405 2.429 0.405h26.319c8.908 0 15.791-6.478 14.981-15.386-0.81-8.503-8.098-14.981-17.006-14.981-5.669 0-10.932 0-16.601 0-1.62 0-2.834-0.81-3.239-2.025-0.81-2.834-2.025-5.264-2.834-8.098-0.405-0.81-1.215-0.81-2.429-0.81h-12.147c-2.025 0-3.644 1.215-2.834 3.239 1.62 4.859 3.239 9.718 5.264 14.577 1.215 3.644 4.859 6.074 8.908 6.074zM427.983 622.311c-0.81 3.644-2.025 5.669-2.834 9.313-0.405 1.215-1.62 1.215-2.834 1.215s-2.429 0-4.049 0-2.834-0.405-3.239-1.62c-0.81-2.834-2.025-4.859-2.834-7.693-0.405-0.81-1.215-0.81-2.429-0.81h-12.147c-2.025 0-3.644 1.215-2.834 3.239 1.62 4.859 3.239 9.718 5.264 14.577 1.215 3.644 4.859 6.074 8.908 6.074h25.104c1.62 0 3.239 1.62 3.239 3.239s-1.215 3.644-2.834 3.644h-29.963c1.215 3.644 2.429 6.074 3.644 9.718 0.405 0.81 1.215 0.405 2.429 0.405h26.319c8.908 0 15.791-6.478 14.981-15.386-0.405-6.074-4.454-10.123-9.718-12.552 1.215-4.859 2.429-9.718 3.644-13.362h-17.816zM317.849 653.488c1.215 3.644 2.429 5.264 3.239 8.503 0.405 1.215-0.405 1.62-2.025 1.62h-13.362c-0.81 0-2.025 0.405-2.429-0.405-1.215-3.644-2.429-6.478-3.644-9.718h18.221zM328.376 622.311h-35.227c-2.025 0-3.644 1.62-2.834 3.644 2.429 6.883 4.859 13.767 7.288 20.65h17.816c-0.81-3.644-1.62-4.454-2.429-6.883-0.81-2.025 0.81-3.644 2.834-3.644h15.386c2.025 0 3.644-2.429 2.834-4.454-0.81-2.834-2.025-5.264-2.834-8.098-0.405-0.81-1.215-1.215-2.834-1.215zM370.486 664.421c-3.239-4.049-6.478-7.288-9.718-10.527h26.724c-0.405 3.644-0.81 6.074-0.81 9.718 0 1.215-0.81 0.81-2.025 0.81h-11.742c-1.62-0.405-2.025 0.405-2.429 0zM373.321 622.311h13.767c1.215 0 2.429 0.81 2.429 2.025-0.81 7.693-1.215 15.386-2.025 22.27h-32.392c-5.669-6.883-11.337-12.957-16.601-19.435-1.62-2.025-0.405-4.454 2.025-4.454h10.527c0.81 0 1.215-0.405 1.62 0.405 2.834 3.644 6.074 6.074 8.908 9.718 0.81 0.81 1.62 0.405 2.429 0.405h3.644c1.62 0 2.834-0.405 2.834-2.025 0.405-2.834 0.405-4.454 0.81-7.288 0-1.215 0.81-0.81 2.025-0.81zM358.339 343.333c0 2.025 0 3.644 0 5.669-4.049 0-8.098 0-11.742 0 0-2.025 0-4.049 0-5.669 2.025-0.405 10.527-0.405 11.742 0zM317.039 361.148c4.049 0 7.693 0 11.337 0h0.405c0 2.025 0 4.049 0 5.669-4.049 0-7.693 0-11.742 0 0-2.025 0-4.049 0-5.669zM364.413 378.964c-2.025 0-4.049 0-5.669 0 0-0.405 0-0.81 0-1.215 0-9.313 0-18.221 0-27.533 0-0.405 0-0.81 0-0.81 2.025 0 3.644 0 5.669 0 0 9.718 0 19.435 0 29.558zM370.486 420.669c0 4.049 0 7.693 0 11.742 2.025 0 4.049 0 5.669 0 0 31.987 0 63.57 0 95.152-2.025 0-4.049 0-6.074 0 0 4.049 0 7.693 0 11.742-2.025 0-4.049 0-6.074 0 0 2.025 0 4.049 0 6.074-4.049 0-7.693 0-11.742 0 0 2.025 0 4.049 0 5.669-10.123 0-19.84 0-29.558 0 0-2.025 0-3.644 0-6.074-4.049 0-8.098 0-11.742 0 0-2.025 0-4.049 0-6.074-2.025 0-4.049 0-6.074 0 0-2.025 0-4.049 0-6.074s0-4.049 0-6.074c-2.025 0-4.049 0-5.669 0-0.405-2.025-0.405-93.938 0-95.152 1.62 0 3.644 0 5.669 0 0-1.62 0-2.834 0-4.049s0-2.834 0-4.049 0-2.429 0-4.049c2.025 0 4.049 0 6.074 0 0-2.025 0-4.049 0-5.669 4.049 0 8.098 0 11.742 0 0-2.025 0-4.049 0-5.669 2.429-0.405 28.748-0.405 29.558 0 0 1.62 0 3.644 0 5.669 4.049 0 7.693 0 11.742 0 0.405 2.025 0 4.049 0.405 6.074 2.025 0.81 4.049 0.81 6.074 0.81zM352.266 438.485c-2.025 0-3.644 0-5.669 0-0.405-2.025 0-4.049 0-6.074-6.074 0-11.742 0-17.816 0 0 1.215 0 2.025 0 2.834s0 2.025 0 2.834c-2.025 0-4.049 0-5.669 0 0 27.938 0 55.472 0 83.41 2.025 0 3.644 0 5.669 0 0 2.025 0 4.049 0 6.074 6.074 0 11.742 0 17.816 0 0-2.025 0-3.644 0-5.669 2.025 0 4.049 0 6.074 0-0.405-27.938-0.405-55.877-0.405-83.41zM340.928 349.001c2.025 0 3.644 0 5.669 0 0 9.718 0 19.84 0 29.558-2.025 0-4.049 0-5.669 0-0.405-2.025-0.405-28.343 0-29.558zM465.234 432.411c0 31.987 0 63.57 0 95.152-2.025 0-4.049 0-6.074 0 0 4.049 0 7.693 0 11.742-2.025 0-4.049 0-6.074 0 0 2.025 0 4.049 0 6.074-4.049 0-7.693 0-11.742 0 0 2.025 0 4.049 0 5.669-10.123 0-19.84 0-29.558 0 0-2.025 0-3.644 0-6.074-4.049 0-8.098 0-11.742 0 0-2.025 0-4.049 0-6.074-2.025 0-4.049 0-6.074 0 0-4.049 0-8.098 0-11.742-2.025 0-4.049 0-5.669 0-0.405-2.025-0.405-40.49 0-41.705 1.62 0 3.644 0 5.669 0 0-4.049 0-7.693 0-11.742 2.025 0 4.049 0 6.074 0 0-2.025 0-4.049 0-6.074 2.025 0 4.049 0 6.074 0s4.049 0 6.074 0c0-2.025 0-4.049 0-6.074 10.123 0 19.84 0 29.558 0 0.405-1.62 0.405-22.675 0-23.889-1.62 0-3.644 0-5.669 0 0-2.025 0-4.049 0-6.074-6.883 0-13.767 0-20.65 0s-13.767 0-20.65 0c0-8.098 0-15.791 0-23.484 2.025-0.405 46.159-0.405 47.374 0 0 1.62 0 3.644 0 5.669 4.049 0 7.693 0 11.742 0 0 2.025 0 4.049 0 6.074 2.025 0 4.049 0 6.074 0 0 1.62 0 2.834 0 4.049s0 2.834 0 4.049-0.405 2.429 0 4.049c1.62 0.405 3.644 0.405 5.264 0.405zM441.749 491.932c-2.025-0.405-3.644 0-5.669 0 0-2.025 0-3.644 0-5.669-1.215-0.405-15.791-0.405-17.816 0 0 2.025 0 3.644 0 5.669-2.025 0-4.049 0-5.669 0-0.405 1.215-0.405 27.533 0 29.963 2.025 0 3.644 0 5.669 0 0 2.025 0 4.049 0 5.669 6.074 0 11.742 0 17.816 0 0-2.025 0-3.644 0-5.669 2.025 0 4.049 0 6.074 0-0.405-10.123-0.405-19.84-0.405-29.963zM334.45 378.964c-1.215 0-2.025 0-2.834 0s-2.025 0-2.834 0v-0.405c0-3.644 0-7.693 0-11.337 2.025 0 3.644 0 5.669 0 0 3.644 0 7.693 0 11.742zM358.339 384.633c-4.049 0-7.693 0-11.742 0 0-2.025 0-4.049 0-5.669 4.049 0 8.098 0 11.742 0 0 2.025 0 3.644 0 5.669zM239.298 295.554c0 2.025 0 3.644 0 5.669 2.025 0 4.049 0 6.074 0 0 2.025 0 4.049 0 5.669 2.025 0 4.049 0 6.074 0 0 2.025 0 4.049 0 6.074 2.025 0 4.049 0 5.669 0 0 6.074 0 11.742 0 17.816-2.025 0-4.049 0-6.074 0 0 2.025 0 4.049 0 5.669-4.049 0-7.693 0-11.742 0 0-2.025 0-4.049 0-5.669-2.025 0-4.049 0-6.074 0 0 2.025 0 4.049 0 5.669-4.049 0-7.693 0-11.742 0 0-2.025 0-3.644 0-6.074-2.025 0-4.049 0-5.669 0 0-6.074 0-11.742 0-17.816 2.025 0 4.049 0 6.074 0 0-2.025 0-4.049 0-5.669 2.025 0 3.644 0 6.074 0 0-2.025 0-4.049 0-6.074 1.215 0 2.025 0 2.834 0s2.025 0 2.834 0c0-2.025 0-4.049 0-5.669 2.025 0.405 4.049 0.405 5.669 0.405zM263.187 551.048c-8.098 0-15.791 0-23.889 0 0-6.074 0-11.742 0-17.816-2.025 0-4.049 0-6.074 0 0-2.025 0-4.049 0-6.074-4.049 0-8.098 0-11.742 0 0-8.098 0-15.791 0-23.889 1.62 0 2.834 0 4.454 0s2.834 0 4.454 0 2.834 0 4.454 0 2.834 0 4.454 0c0-31.582 0-63.165 0-94.747 2.025-0.405 22.675-0.405 23.484 0 0.405 47.779 0.405 95.152 0.405 142.526zM185.851 456.301c0 2.025 0 4.049 0 6.074 2.025 0 4.049 0 6.074 0 0 2.025 0 4.049 0 6.074 2.025 0 4.049 0 5.669 0 0.405 1.62 0.405 16.601 0 17.816-1.62 0-3.644 0-5.669 0 0 2.025 0 4.049 0 5.669-6.074 0-11.742 0-17.816 0 0-2.025 0-3.644 0-5.669-2.025 0-4.049 0-6.074 0 0 2.025 0 3.644 0 5.669-2.025 0.405-16.601 0.405-17.816 0 0-1.62 0-3.644 0-5.669-2.025 0-4.049 0-5.669 0 0-6.074 0-11.742 0-17.816 2.025 0 3.644 0 6.074 0 0-2.025 0-4.049 0-6.074 2.025 0 4.049 0 6.074 0 0-2.025 0-4.049 0-6.074 2.025 0 4.049 0 6.074 0 0-2.025 0-4.049 0-6.074 2.025 0 4.049 0 6.074 0 0-2.025 0-4.049 0-5.669 2.025 0 4.049 0 5.669 0 0 2.025 0 3.644 0 6.074 2.025 0 4.049 0 6.074 0 0.405 2.025 0 4.049 0.405 6.074 1.215-0.405 2.834-0.405 4.859-0.405zM419.075 289.48c-29.558 0-59.116 0-88.269 0-0.81 0-1.215 0-2.025 0 0 4.049 0 8.098 0 12.147s0 7.693 0 11.742 0 8.098 0 11.742 0 7.693 0 11.742c-4.049 0-7.693 0-11.742 0 0-15.791 0-31.582 0-47.374-0.81 0-1.215 0-2.025 0-60.331 0-120.661 0-180.587 0-0.405 0-1.215 0-1.62 0v-13.362h380.609v13.362c-0.81 0-1.215 0-2.025 0-31.178 0-61.545 0-92.318 0zM334.45 361.148c-1.215 0-2.025 0-2.834 0s-2.025 0-2.834 0v-0.405c0-3.644 0-7.693 0-11.337 2.025 0 3.644 0 5.669 0 0 3.644 0 7.693 0 11.742zM310.966 343.333c2.834-0.405 16.601 0 17.816 0 0 2.025 0 3.644 0 5.669-6.074 0-11.742 0-17.816 0 0-2.025 0-4.049 0-5.669zM328.781 384.633c-6.074 0-11.742 0-17.816 0 0-2.025 0-4.049 0-5.669 0.405 0 0.405 0 0.81 0 5.264 0 10.527 0 16.196 0 0.405 0 0.81 0 1.215 0 0 1.215 0 2.834 0 4.049-0.405 0.81-0.405 1.215-0.405 1.62zM298.819 343.333c0 13.767 0 27.533 0 41.3-2.025 0-3.644 0-5.669 0 0-2.025 0-4.049 0-6.074-2.025 0-4.049 0-5.669 0 0-2.025 0-4.049 0-6.074 2.025 0 3.644 0 5.669 0 0-10.123 0-19.84 0-29.558 2.025 0.405 3.644 0.405 5.669 0.405z" horiz-adv-x="655" />
<glyph unicode="&#xe626;" d="M736 896c-76.928 0-138.592-27.616-192.96-82.016-0.032-0.032-0.064-0.064-0.096-0.096h-0.032l-30.912-38.944-30.912 36.576c-0.032 0.032-0.064 0.064-0.096 0.096h-0.032c-54.4 54.432-116.032 84.384-192.96 84.384s-149.248-29.952-203.648-84.352c-54.368-54.4-84.352-126.72-84.352-203.648 0-76.864 29.92-149.184 84.256-203.552l382.304-385.504c12-12.128 28.384-18.944 45.44-18.944s33.44 6.816 45.44 18.944l382.272 385.504c54.336 54.368 84.288 126.656 84.288 203.552 0 76.928-29.984 149.248-84.352 203.648-54.4 54.4-126.72 84.352-203.648 84.352v0z" />
<glyph unicode="&#xe627;" d="M512-64c-282.947 0-512 229.053-512 512s229.053 512 512 512 512-229.053 512-512-229.053-512-512-512zM512 926.316c-262.737 0-478.316-215.579-478.316-478.316s215.579-478.316 478.316-478.316 478.316 215.579 478.316 478.316c0 262.737-215.579 478.316-478.316 478.316zM495.158 181.895h33.684v-138.105h-33.684v138.105zM629.917 209.504l52.811-127.609-31.124-12.881-52.811 127.609 31.124 12.881zM711.955 270.099l97.613-97.709-23.832-23.808-97.613 97.709 23.832 23.808zM766.518 361.701l127.554-52.963-12.918-31.111-127.554 52.963 12.918 31.111zM778.105 464.842h138.105v-33.684h-138.105v33.684zM880.486 620.696l12.867-31.131-127.637-52.756-12.867 31.131 127.637 52.756zM789.342 748.359l23.768-23.869-97.861-97.447-23.768 23.869 97.861 97.447zM650.903 830.285l31.091-12.962-53.143-127.471-31.091 12.962 53.143 127.471zM495.158 855.579h33.684v-138.105h-33.684v138.105zM372.552 831.849l52.521-127.734-31.155-12.81-52.521 127.734 31.155 12.81zM234.539 749.844l97.364-97.944-23.889-23.747-97.364 97.944 23.889 23.747zM143.409 621.309l127.43-53.253-12.989-31.080-127.43 53.253 12.989 31.080zM104.483 468.437l138.105-0.455-0.111-33.684-138.105 0.455 0.111 33.684zM257.42 363.132l12.76-31.175-127.816-52.314-12.76 31.175 127.816 52.314zM309.37 270.503l23.737-23.899-97.986-97.323-23.737 23.899 97.986 97.323zM392.756 209.938l31.060-13.029-53.419-127.347-31.060 13.029 53.419 127.347z" />
<glyph unicode="&#xe628;" d="M286.601 240.513h-29.854v606.041l444.828-200.023-414.974-179.125v-226.892zM286.601 798.787v-301.528l340.338 146.286-340.338 155.242zM794.122-64l-286.601 197.038h-507.522v826.962h910.554v-826.962h-113.446v-197.038zM29.854 162.892h486.624l247.79-170.169v170.169h113.446v767.254h-847.86v-767.254z" horiz-adv-x="911" />
<glyph unicode="&#xe629;" d="M618.852 719.987h-262.678c-67.997 0-119.399-48.569-119.399-112.519v-321.366c0-65.973 53.426-119.399 119.399-119.399h262.678c65.973 0 119.399 53.426 119.399 119.399v321.366c0 63.949-51.402 112.519-119.399 112.519zM734.204 286.103c0-63.545-51.807-115.352-115.352-115.352h-262.678c-63.545 0-115.352 51.807-115.352 115.352v321.366c0 61.926 49.379 108.471 115.352 108.471h262.678c65.568 0 115.352-46.545 115.352-108.471v-321.366zM618.852 719.987h-262.678c-67.997 0-119.399-48.569-119.399-112.519v-321.366c0-65.973 53.426-119.399 119.399-119.399h262.678c65.973 0 119.399 53.426 119.399 119.399v321.366c0 63.949-51.402 112.519-119.399 112.519zM734.204 286.103c0-63.545-51.807-115.352-115.352-115.352h-262.678c-63.545 0-115.352 51.807-115.352 115.352v321.366c0 61.926 49.379 108.471 115.352 108.471h262.678c65.568 0 115.352-46.545 115.352-108.471v-321.366zM618.852 719.987h-262.678c-67.997 0-119.399-48.569-119.399-112.519v-321.366c0-65.973 53.426-119.399 119.399-119.399h262.678c65.973 0 119.399 53.426 119.399 119.399v321.366c0 63.949-51.402 112.519-119.399 112.519zM734.204 286.103c0-63.545-51.807-115.352-115.352-115.352h-262.678c-63.545 0-115.352 51.807-115.352 115.352v321.366c0 61.926 49.379 108.471 115.352 108.471h262.678c65.568 0 115.352-46.545 115.352-108.471v-321.366zM618.852 719.987h-262.678c-67.997 0-119.399-48.569-119.399-112.519v-321.366c0-65.973 53.426-119.399 119.399-119.399h262.678c65.973 0 119.399 53.426 119.399 119.399v321.366c0 63.949-51.402 112.519-119.399 112.519zM734.204 286.103c0-63.545-51.807-115.352-115.352-115.352h-262.678c-63.545 0-115.352 51.807-115.352 115.352v321.366c0 61.926 49.379 108.471 115.352 108.471h262.678c65.568 0 115.352-46.545 115.352-108.471v-321.366zM618.852 719.987h-262.678c-67.997 0-119.399-48.569-119.399-112.519v-321.366c0-65.973 53.426-119.399 119.399-119.399h262.678c65.973 0 119.399 53.426 119.399 119.399v321.366c0 63.949-51.402 112.519-119.399 112.519zM734.204 286.103c0-63.545-51.807-115.352-115.352-115.352h-262.678c-63.545 0-115.352 51.807-115.352 115.352v321.366c0 61.926 49.379 108.471 115.352 108.471h262.678c65.568 0 115.352-46.545 115.352-108.471v-321.366zM805.034 355.719c-1.214 2.833-2.833 5.262-5.666 6.881 0 6.881-0.405 13.761-0.405 21.047-0.405 4.857-0.405 10.119-0.405 15.38 1.619 0.405 2.833 1.214 4.047 2.428 2.024 2.024 2.428 4.047 2.428 6.071 7.285 1.619 10.119 6.476 10.119 10.928v59.497c0 4.452-2.833 9.309-10.928 10.928-1.214 3.238-3.643 5.666-6.476 7.285v36.427c3.238 1.619 5.666 4.452 6.476 8.095 8.095 1.619 10.928 6.476 10.928 10.928v59.092c0 4.452-2.833 9.309-10.928 10.928-1.214 3.643-4.047 6.881-7.69 8.5-0.809 16.999-5.262 77.306-17.404 113.328l-0.809 2.428c-25.499 74.473-43.712 128.708-81.758 163.516-38.855 35.213-97.948 50.593-198.324 50.593h-6.071v-11.738h-8.5v11.738h-6.071c-206.014 0-232.323-62.735-277.654-216.942-6.071-21.856-14.571-81.353-15.785-104.828 0-2.024-0.405-3.238-0.405-4.857 0-1.214-0.405-2.024-0.405-3.238h-2.428c-5.262 0-9.309-4.047-9.714-9.309-5.262-1.619-10.523-4.857-10.523-10.523v-59.092c0-5.666 5.666-8.904 10.523-10.523 1.214-4.047 4.047-7.285 7.69-8.904 0-21.451 1.214-111.709 2.024-168.778-4.047-1.619-7.69-4.452-9.309-8.095-8.095-1.619-10.928-6.476-10.928-10.928v-59.092c0-4.452 2.833-9.309 10.928-10.928 2.024-5.262 8.5-8.095 13.357-9.309 2.024-26.308 9.309-80.544 15.38-101.591 23.88-83.782 40.879-137.208 77.711-173.23 38.855-37.641 98.353-53.831 199.538-53.831h6.071v5.262h8.5v-5.262h6.071c101.186 0 161.492 16.19 201.562 54.64 38.046 36.427 55.855 92.281 78.925 173.23 5.666 20.237 15.785 76.496 18.213 103.209 3.643 1.619 6.881 4.047 8.095 7.69 8.095 1.619 10.928 6.476 10.928 10.928v59.092c0 4.452-2.833 9.309-10.928 10.928zM180.515 550.805h-3.643c-1.214 0-3.238 0.809-4.452 1.214v55.45c1.214 0.405 3.238 1.214 4.452 1.214h6.071v8.095h0.405c-1.619-28.332-2.428-50.998-2.833-65.973zM182.944 277.603v7.285h-6.071c-2.428 0-3.643 0-4.452 0.405v56.664c0.809 0 2.024 0.405 4.452 0.405h4.857c0.809-33.594 2.024-53.831 2.833-65.568-0.809 0.405-1.214 0.809-1.619 0.809zM798.558 475.927c2.428 0 3.643 0 4.452-0.405v-56.664c-0.809 0-2.024-0.405-4.452-0.405h-1.619v57.474h1.619zM798.558 608.278c2.428 0 3.643 0 4.452-0.405v-56.664c-0.809 0-2.024-0.405-4.452-0.405h-1.214c0 11.738 0.405 30.356-0.405 57.474h1.619zM479.216 934.501h16.594v-193.872h-16.594v193.872zM475.573-46.596h-4.452v-6.476c-93.9 0.809-149.755 15.785-184.968 50.593-34.808 33.998-51.402 86.21-74.473 167.968-6.071 21.856-14.166 80.949-15.38 104.019 0 0.809 0 2.024-0.809 3.238-0.809 11.333-2.428 34.403-3.643 79.734h0.809v5.262c-0.809 63.949-2.024 176.468-2.024 177.682v6.071c0.405 13.761 1.619 40.070 3.238 75.282h0.809l0.405 5.666c0.405 3.643 0.405 5.666 0.809 7.69 0 1.619 0.405 3.643 0.405 5.666 1.214 22.666 9.309 81.353 15.38 101.995 23.070 78.52 39.26 128.708 74.473 161.088s91.067 46.95 185.372 47.355v-11.738h4.047v-193.872h-129.518c-71.235 0-129.518-57.474-129.518-128.304v-337.96c0-70.83 58.283-128.708 129.518-128.708h129.518v-192.253zM495.81-46.596h-16.594v192.253h16.594v-192.253zM475.573 150.109v-0.405h-129.518c-69.211 0-125.47 55.855-125.47 124.661v337.96c0 68.402 56.259 124.256 125.47 124.256h284.534c68.806 0 124.661-55.855 124.661-124.256v-337.96c0-68.806-55.855-124.661-124.661-124.661h-130.327v0.405h-24.689zM785.606 275.984h-0.809l-0.405-4.452c-1.619-22.261-11.738-82.163-18.213-104.828-22.261-78.925-39.665-133.565-75.687-167.968-36.427-34.808-92.281-49.783-186.587-50.593v5.262h-3.643v192.253h130.327c70.83 0 128.708 57.878 128.708 128.708v337.96c0 70.83-57.878 128.304-128.708 128.304h-130.327v193.872h4.047v11.738c192.658-1.214 212.085-57.474 262.678-206.014l0.809-2.428c13.761-40.474 16.999-113.733 16.999-114.542l0.405-5.666h0.809c1.214-42.093 0.809-66.783 0.405-76.092h-0.809v-6.071c0 0 0-22.261 0-44.926v-4.452h0.809v-76.901h-0.405v-6.071c0-6.881 0.405-13.761 0.405-20.642v-28.737l0.809-0.405-1.619-77.306zM803.010 286.508c-0.809 0-2.024-0.405-4.452-0.405h-2.428l1.619 57.474h0.809c2.428 0 3.643 0 4.452-0.405v-56.664zM618.852 627.301v2.024h1.619c0.809 0 1.619 0 1.619-1.214 0-0.809-0.809-1.214-1.619-1.214h-1.619v0.405zM622.9 628.515c0 1.214-1.214 1.619-2.024 1.619h-2.833v-6.071h0.809v2.833h1.214c0.405-0.809 1.214-2.024 1.619-2.833h0.809c-0.405 0.809-1.214 2.024-2.024 2.833 1.619 0 2.428 0.405 2.428 1.619v0zM620.471 622.040c-2.428 0-4.452 2.024-4.452 4.857 0 2.428 2.024 4.857 4.452 4.857s4.452-2.024 4.452-4.857c0-2.428-2.024-4.857-4.452-4.857v0zM620.471 632.158c-2.833 0-5.262-2.428-5.262-5.262s2.428-5.262 5.262-5.262 5.262 2.428 5.262 5.262c0 2.833-2.428 5.262-5.262 5.262v0zM450.479 647.134c1.214-13.761-10.523-26.308-24.285-26.713-14.571-0.405-25.094 12.952-22.261 26.713h46.545zM448.86 654.014c-3.238 6.881-11.738 14.166-21.047 13.761s-17.404-6.881-21.856-13.761h42.903zM358.198 647.134h23.88c1.619 0 3.238 1.619 3.238 3.238s-1.214 3.643-2.833 3.643h-29.951c1.214 3.643 2.428 6.071 3.643 9.714 0.405 0.809 1.214 0.405 2.428 0.405h26.308c8.904 0 15.785-6.476 14.975-15.38-0.809-8.5-8.095-14.975-16.999-14.975-5.666 0-10.928 0-16.594 0-1.619 0-2.833-0.809-3.238-2.024-0.809-2.833-2.024-5.262-2.833-8.095-0.405-0.809-1.214-0.809-2.428-0.809h-12.142c-2.024 0-3.643 1.214-2.833 3.238 1.619 4.857 3.238 9.714 5.262 14.571 1.214 3.643 4.857 6.071 8.904 6.071l1.214 0.405zM588.901 622.849c-0.809 3.643-2.024 5.666-2.833 9.309-0.405 1.214-1.619 1.214-2.833 1.214s-2.428 0-4.047 0-2.833-0.405-3.238-1.619c-0.809-2.833-2.024-4.857-2.833-7.69-0.405-0.809-1.214-0.809-2.428-0.809h-12.142c-2.024 0-3.643 1.214-2.833 3.238 1.619 4.857 3.238 9.714 5.262 14.571 1.214 3.643 4.857 6.071 8.904 6.071h25.094c1.619 0 3.238 1.619 3.238 3.238s-1.214 3.643-2.833 3.643h-29.951c1.214 3.643 2.428 6.071 3.643 9.714 0.405 0.809 1.214 0.405 2.428 0.405h26.308c8.904 0 15.785-6.476 14.975-15.38-0.405-6.071-4.452-10.119-9.714-12.547 1.214-4.857 2.428-9.714 3.643-13.357h-17.809zM478.811 654.014c1.214 3.643 2.428 5.262 3.238 8.5 0.405 1.214-0.405 1.619-2.024 1.619h-13.357c-0.809 0-2.024 0.405-2.428-0.405-1.214-3.643-2.428-6.476-3.643-9.714h18.213zM489.334 622.849h-35.213c-2.024 0-3.643 1.619-2.833 3.643 2.428 6.881 4.857 13.761 7.285 20.642h17.809c-0.809-3.643-1.619-4.452-2.428-6.881-0.809-2.024 0.809-3.643 2.833-3.643h15.38c2.024 0 3.643-2.428 2.833-4.452-0.809-2.833-2.024-5.262-2.833-8.095-0.405-0.809-1.214-1.214-2.833-1.214v0zM531.428 664.538c-3.238-4.047-6.476-7.285-9.714-10.523h26.713c-0.405 3.643-0.809 6.071-0.809 9.714 0 1.214-0.809 0.809-2.024 0.809h-12.547c-0.809-0.405-1.214 0.405-1.619 0v0zM534.261 622.849h13.761c1.214 0 2.428 0.809 2.428 2.024-0.809 7.69-1.214 15.38-2.024 22.261h-32.379c-5.666-6.881-11.333-12.952-16.594-19.428-1.619-2.024-0.405-4.452 2.024-4.452h10.523c0.809 0 1.214-0.405 1.619 0.405 2.833 3.643 6.071 6.071 8.904 9.714 0.809 0.809 1.619 0.405 2.428 0.405h3.643c1.619 0 2.833-0.405 2.833-2.024 0.405-2.833 0.405-4.452 0.809-7.285 0-1.214 0.809-0.809 2.024-0.809v-0.809zM121.018 158.609c-3.238 0-6.071 2.024-7.69 5.262-36.022 89.043-54.64 190.634-54.64 293.439 0 98.353 16.594 193.062 49.783 280.892 1.619 4.047 6.071 6.476 10.523 4.857 4.047-1.619 6.476-6.071 4.857-10.523-32.379-86.21-48.974-178.492-48.974-275.225 0-100.781 18.618-200.348 53.831-287.772 1.619-4.047-0.405-8.904-4.452-10.523-1.214-0.405-2.428-0.405-3.238-0.405zM42.498 199.488c-3.643 0-6.881 2.428-7.69 6.071-23.070 80.544-34.808 165.135-34.808 252.155 0 82.568 10.523 163.111 31.57 239.203 1.214 4.452 5.666 6.881 10.119 5.666s6.881-5.666 5.666-10.119c-20.642-74.877-30.76-154.207-30.76-235.156 0-85.401 11.333-168.373 33.998-247.298 1.214-4.452-1.214-8.904-5.666-10.119-0.809-0.405-1.619-0.405-2.428-0.405zM847.937 158.609c-0.809 0-2.024 0-2.833 0.405-4.047 1.619-6.071 6.476-4.452 10.523 35.213 87.425 53.831 186.587 53.831 287.772 0 96.734-16.594 189.015-48.974 275.225-1.619 4.047 0.405 8.904 4.857 10.523 4.047 1.619 8.904-0.405 10.523-4.857 33.189-87.829 49.783-182.539 49.783-280.892 0-102.805-19.023-204.395-54.64-293.439-2.024-3.238-4.857-5.262-8.095-5.262zM926.457 199.488c-0.809 0-1.619 0-2.428 0.405-4.452 1.214-6.881 5.666-5.666 10.119 22.666 78.925 33.998 162.302 33.998 247.298 0 80.949-10.523 159.874-30.76 235.156-1.214 4.452 1.214 8.904 5.666 10.119s8.904-1.214 10.119-5.666c21.047-76.496 31.57-157.040 31.57-239.203 0-86.615-11.738-171.611-34.808-252.155-0.809-3.643-4.047-6.071-7.69-6.071zM284.534 575.089v-298.7h399.077v298.7h-399.077zM340.794 472.285v57.878h11.333v-57.878c-0.809 0-9.309 0-11.333 0zM381.268 484.022c0.405-1.214 0.405-9.714 0-11.738h-11.333v5.666h-5.666v29.142h-5.666v11.738h5.666v11.738h11.738c0-3.643 0-7.69 0-11.333h5.666v-11.738c-1.619-0.405-3.643 0-5.666 0v-23.070h5.262zM410.409 379.194v-5.666h5.666v-40.474c-1.214-0.405-9.714-0.405-11.738 0v34.808h-5.666c0-1.619 0-3.238 0-4.857v-29.951h-11.333v34.808h-5.666v-34.808h-11.333c-0.405 0.809-0.405 44.522 0 46.545h40.070zM387.339 513.164v17.404h11.333v-11.333h-5.666v-5.666c-0.809-0.405-3.643-0.809-5.666-0.405zM410.814 489.689v5.666h-5.666v17.404h5.666v5.666h23.070v-11.738c-2.024 0-3.643 0-5.666 0h-11.333v-5.666h17.404v-5.666h5.666c0.405-1.214 0.405-15.785 0-17.404h-5.666v-5.666c-1.214-0.405-26.713-0.405-29.142 0v11.333c2.024 0 4.047 0 5.666 0h17.404v5.666h-17.404zM456.955 449.214c0.405-4.047 0-7.69 0-11.738h-5.666c-0.405-1.214-0.405-21.451 0-23.475h5.666v-11.738h-11.333v5.666h-5.666c0 2.024 0 4.047 0 5.666v23.475h-5.666c-0.405 1.214-0.405 10.119 0 11.738h5.666v11.333c1.214 0.405 9.714 0.405 11.738 0v-11.333h5.262zM422.147 338.315v34.808h5.666v5.666h23.475v-5.666h5.666v-34.808h-5.666v-5.666h-23.070v5.666c-2.024 0-4.047 0-6.071 0zM486.096 484.022v-11.333h-11.333v5.666h-5.666v29.142c-2.024 0.405-4.047 0-5.666 0v11.738h5.666v11.738h11.738c0-3.643 0-7.69 0-11.333h5.666v-11.738c-1.619-0.405-3.643 0-5.666 0v-23.475h5.262zM463.026 443.143h5.666v5.666h23.070v-5.666h5.666v-35.213h-5.666v-5.666h-23.475v5.666h-5.666c0.405 1.619 0.405 33.594 0.405 35.213zM503.5 513.164v-40.474c-0.809-0.405-9.309-0.405-11.333 0v40.474h11.333zM492.168 518.83v11.333h11.333v-11.333c-0.809 0-8.904 0-11.333 0zM468.692 343.981v17.809h-5.666v17.404h11.333v-17.404h11.738v17.404h11.333c0.405-0.809 0.405-15.785 0-17.404h-5.666v-17.404h-6.071v-11.738h-11.738c0 2.024 0 3.643 0 5.666v5.666h-5.262zM556.117 513.164v-40.879c-3.643 0-7.69 0-11.333 0 0 1.619 0 3.238 0 4.857s0 3.238 0 4.857v25.094h-5.666c0-2.024 0-3.643 0-5.666v-29.142h-11.738v34.808h-5.666v-34.808h-11.333c-0.405 0.809-0.405 44.522 0 46.545h40.474v-5.666h5.262zM556.117 343.981c0-3.643 0-7.69 0-11.333h-11.738v11.333h11.738zM544.379 350.052v40.474h11.333v-40.474h-11.333zM509.572 373.123v5.666h23.070v-5.666h5.666v-23.475h-23.070v-5.666h23.070c0-4.047 0-7.69 0-11.738h-29.142v5.666h-5.666v34.808h6.071zM596.591 472.285h-28.737v5.666h-5.666v34.808h5.666v5.666c1.214 0.405 21.451 0.405 23.475 0v-5.666h5.666v-23.475h-23.070c-0.405-1.214-0.405-3.643 0-5.666h22.666c0.405-0.809 0.405-9.309 0-11.333zM671.469 288.531h-27.927v113.733h5.666v5.666h5.666v5.666h5.666v5.666c2.024 0 3.643 0 5.666 0v11.738h-5.666v5.666h-5.666v5.666h-6.071v5.666h-5.666v114.138h27.927v-273.606zM526.975 367.456c-4.047 0-7.69 0-11.333 0 0-2.024 0-3.643 0-5.666 4.047 0 7.69 0 11.333 0 0 2.024 0 3.643 0 5.666zM526.975 367.456c0-2.024 0-3.643 0-5.666-3.643 0-7.69 0-11.333 0 0 2.024 0 3.643 0 5.666 3.643 0 7.285 0 11.333 0zM573.521 501.426c0 2.024 0 3.643 0 5.666 3.643 0 7.69 0 11.333 0 0-2.024 0-3.643 0-5.666-3.643 0-7.285 0-11.333 0zM445.217 344.386c-4.047 0-7.69 0-11.333 0 0 7.69 0 15.38 0 23.070 1.214 0.405 9.714 0.405 11.333 0 0-7.69 0-15.38 0-23.070zM474.764 414.002c0 7.69 0 15.38 0 23.070 3.643 0 7.69 0 11.333 0 0.405-0.809 0.405-20.642 0-23.070-3.643 0-7.285 0-11.333 0z" horiz-adv-x="969" />
<glyph unicode="&#xe62a;" d="M512 896c282.77 0 512-186.25 512-416 0-229.752-229.23-416-512-416-27.156 0-53.81 1.734-79.824 5.044-109.978-109.978-241.25-129.7-368.176-132.596v26.916c68.536 33.578 128 94.74 128 164.636 0 9.754-0.758 19.33-2.164 28.696-115.796 76.264-189.836 192.754-189.836 323.304 0 229.75 229.23 416 512 416z" />
</font>
</defs>
</svg>
