<?xml version="1.0" encoding="utf-8"?>
<!-- Generator: Adobe Illustrator 17.1.0, SVG Export Plug-In . SVG Version: 6.00 Build 0)  -->
<!DOCTYPE svg PUBLIC "-//W3C//DTD SVG 1.1//EN" "http://www.w3.org/Graphics/SVG/1.1/DTD/svg11.dtd">
<svg version="1.1" id="circle-menu" xmlns="http://www.w3.org/2000/svg" xmlns:xlink="http://www.w3.org/1999/xlink" x="0px"
	 y="0px" viewBox="0 0 47.1 46.4" enable-background="new 0 0 47.1 46.4" xml:space="preserve">
<polygon fill="none" stroke="#000000" stroke-width="0.5" stroke-miterlimit="10" points="16.2,44.1 4.9,34.7 2.3,20.1 9.7,7.3 
	23.5,2.3 37.4,7.3 44.8,20.1 42.2,34.7 30.9,44.1 "/>
<g>
	<path fill="none" d="M12.1,7.5c0-1.3-1-2.3-2.3-2.3c-1.3,0-2.3,1-2.3,2.3c0,1.3,1,2.3,2.3,2.3C11,9.8,12.1,8.8,12.1,7.5"/>
	<path fill="none" d="M10.8,7.5c0-0.5-0.4-1-1-1c-0.6,0-1,0.4-1,1c0,0.5,0.4,1,1,1C10.3,8.5,10.8,8,10.8,7.5"/>
</g>
<g class="active">
	<path fill="none" d="M4.6,20.1c0-1.3-1-2.3-2.3-2.3c-1.3,0-2.3,1-2.3,2.3c0,1.3,1,2.3,2.3,2.3C3.6,22.4,4.6,21.4,4.6,20.1"/>
	<path fill="none" d="M3.3,20.1c0-0.5-0.4-1-1-1c-0.6,0-1,0.4-1,1c0,0.5,0.4,1,1,1C2.9,21.1,3.3,20.7,3.3,20.1"/>
</g>
<g>
	<path fill="none" d="M47.1,20.1c0-1.3-1-2.3-2.3-2.3c-1.3,0-2.3,1-2.3,2.3c0,1.3,1,2.3,2.3,2.3C46.1,22.4,47.1,21.4,47.1,20.1"/>
	<path fill="none" d="M45.8,20.1c0-0.5-0.4-1-1-1c-0.6,0-1,0.4-1,1c0,0.5,0.4,1,1,1C45.3,21.1,45.8,20.7,45.8,20.1"/>
</g>
<g>
	<path fill="none" d="M39.6,7.5c0-1.3-1-2.3-2.3-2.3c-1.3,0-2.3,1-2.3,2.3c0,1.3,1,2.3,2.3,2.3C38.6,9.8,39.6,8.8,39.6,7.5"/>
	<path fill="none" d="M38.3,7.5c0-0.5-0.4-1-1-1c-0.6,0-1,0.4-1,1c0,0.5,0.4,1,1,1C37.8,8.5,38.3,8,38.3,7.5"/>
</g>
<g>
	<path fill="none" d="M25.8,2.3c0-1.3-1-2.3-2.3-2.3c-1.3,0-2.3,1-2.3,2.3c0,1.3,1,2.3,2.3,2.3C24.8,4.6,25.8,3.6,25.8,2.3"/>
	<path fill="none" d="M24.5,2.3c0-0.5-0.4-1-1-1c-0.6,0-1,0.4-1,1c0,0.5,0.4,1,1,1C24.1,3.3,24.5,2.8,24.5,2.3"/>
</g>
<g>
	<path fill="none" d="M7.2,34.5c0-1.3-1-2.3-2.3-2.3c-1.3,0-2.3,1-2.3,2.3c0,1.3,1,2.3,2.3,2.3C6.1,36.8,7.2,35.8,7.2,34.5"/>
	<path fill="none" d="M5.9,34.5c0-0.5-0.4-1-1-1c-0.6,0-1,0.4-1,1c0,0.5,0.4,1,1,1C5.4,35.5,5.9,35.1,5.9,34.5"/>
</g>
<g>
	<path fill="none" d="M18.4,44.1c0-1.3-1-2.3-2.3-2.3c-1.3,0-2.3,1-2.3,2.3c0,1.3,1,2.3,2.3,2.3C17.4,46.4,18.4,45.4,18.4,44.1"/>
	<path fill="none" d="M17.1,44.1c0-0.5-0.4-1-1-1c-0.6,0-1,0.4-1,1c0,0.5,0.4,1,1,1C16.7,45.1,17.1,44.7,17.1,44.1"/>
</g>
<g>
	<path fill="none" d="M33.2,44.1c0-1.3-1-2.3-2.3-2.3c-1.3,0-2.3,1-2.3,2.3c0,1.3,1,2.3,2.3,2.3C32.2,46.4,33.2,45.4,33.2,44.1"/>
	<path fill="none" d="M31.9,44.1c0-0.5-0.4-1-1-1c-0.6,0-1,0.4-1,1c0,0.5,0.4,1,1,1C31.5,45.1,31.9,44.7,31.9,44.1"/>
</g>
<g>
	<path fill="none" d="M44.5,34.7c0-1.3-1-2.3-2.3-2.3c-1.3,0-2.3,1-2.3,2.3c0,1.3,1,2.3,2.3,2.3C43.4,37,44.5,35.9,44.5,34.7"/>
	<path fill="none" d="M43.2,34.7c0-0.5-0.4-1-1-1s-1,0.4-1,1c0,0.5,0.4,1,1,1S43.2,35.2,43.2,34.7"/>
</g>
</svg>
