<!-- Generator: Adobe Illustrator 17.1.0, SVG Export Plug-In . SVG Version: 6.00 Build 0)  -->
<!DOCTYPE svg PUBLIC "-//W3C//DTD SVG 1.1//EN" "http://www.w3.org/Graphics/SVG/1.1/DTD/svg11.dtd">
<svg version="1.1" id="Layer_1" xmlns="http://www.w3.org/2000/svg" xmlns:xlink="http://www.w3.org/1999/xlink" x="0px" y="0px"
	 viewBox="0 0 74.4 114" enable-background="new 0 0 74.4 114" xml:space="preserve">
<path d="M73.4,114c-0.3,0-0.5-0.1-0.7-0.3L16,57L72.7,0.3c0.4-0.4,1-0.4,1.4,0c0.4,0.4,0.4,1,0,1.4L18.8,57l55.3,55.3
	c0.4,0.4,0.4,1,0,1.4C73.9,113.9,73.7,114,73.4,114z"/>
<path d="M1,0c0.3,0,0.5,0.1,0.7,0.3L58.4,57L1.7,113.7c-0.4,0.4-1,0.4-1.4,0c-0.4-0.4-0.4-1,0-1.4L55.6,57L0.3,1.7
	c-0.4-0.4-0.4-1,0-1.4C0.5,0.1,0.7,0,1,0z"/>
</svg>
