<svg version="1.1"
	 id="svg607" xmlns:sodipodi="http://sodipodi.sourceforge.net/DTD/sodipodi-0.dtd" sodipodi:version="0.34" sodipodi:docname="/home/kesigomu/Corvina/crow" sodipodi:docbase="/home/kesigomu/Corvina"
	 xmlns="http://www.w3.org/2000/svg" xmlns:xlink="http://www.w3.org/1999/xlink" x="0px" y="0px" width="375.903px"
	 height="465.262px" viewBox="166.669 64.006 375.903 465.262" enable-background="new 166.669 64.006 375.903 465.262"
	 xml:space="preserve">
<sodipodi:namedview  id="base"></sodipodi:namedview>
<path id="path626" sodipodi:nodetypes="ccccccccccscsssccccccccccccccccccccccccccccccccccccccccccccscccccccccccccc" d="
	M224.005,86.996c1.923-7.828,13.317-14.213,22.274-14.71c1.231-0.348,5.175-2.428,8.406-3.362
	c19.872-8.512,36.046-3.659,38.881-2.403c2.836,1.405,11.607,6.975,17.312,11.203c9.271,4.823,12.12,12.396,15.576,15.75
	c6.724,8.405,14.595,13.924,24.894,22.546c11.19,8.473,19.562,24.346,20.716,27.661c2.64,1.235,6.258,4.589,14.638,7.293
	c31.263,3.893,58.714,54.817,69.111,89.865c7.13,7.495,5.395,29.367,8.774,34.359c4.542,6.928,12.813,58.764,17.465,64.38
	c1.282,2.318,0.359,10.565,2.993,17.528c1.423,3.763,8.13,28.092,11.636,34.493c5.176,9.503,9.96,33.117,15.486,40.791
	c16.845,23.599,20.334,41.369,24.766,48.127c0.717,1.558-1.214,4.593-2.87,2.22c-1.366-1.733-1.369-2.211-2.209-1.581
	c-1.681,1.576-2.889,2.627-2.154,5.148c2.101,3.362-0.315,5.411,2.259,9.036c2.942,4.833,8.405,18.177,10.612,24.113
	c-0.473,8.195-1.944,11.242-11.61,9.193c-4.728-1.103-7.722-5.411-9.824-10.874c-1.681-2.417-5.989-1.681-7.985-0.42
	c-10.192,16.338-44.707,10.822-52.377,2.101c-7.509-8.986-28.765-45.104-33.015-51.473c-8.248-2.712-22.593-19.939-24.72-30.06
	c-0.344-1.8-3.027-1.545-3.782-0.84c-3.43,9.917-3.265,13.822-0.42,16.391c2.547,5.391-1.609,9.815-7.145,9.666
	c-21.286-1.486-36.262,0.692-38.185,0.174c-1.031-1.261-11.53-0.021-10.023-4.895c1.061-2.05,4.92-5.786,7.862-8.728
	c1.159-1.307,3.587-1.261,6.304-1.261c4.203,0,4.967,0.149,8.601-0.297c1.554-0.594,2.271-1.588,7.344-2.42
	c2.101-5.884,11.471-12.116,13.152-14.217c2.424-1.953,1.66-3.265,3.065-5.366c0.662-2.547,0.42-4.254-1.307-5.71
	c-11.832-7.697-28.837-12.43-36.457-17.329c-6.58-2.67-11.382-2.445-12.494-0.225c-3.787,7.718-8.282,10.813-9.594,12.659
	c-2.203,3.332-4.449,5.018-5.93,5.166c-2.522,0-7.539,7.913-12.188,15.55c-3.46,5.557-1.261,15.053,1.681,15.55
	c1.307-0.543,2.025-1.707,7.145,0.84c1.257,1.656,2.025,3.116,3.362,5.464c-0.149,2.05-0.989,4.203-5.935,4.598
	c-4.946,0.098-9.645,0.221-11.717-0.395c-5.043-2.101-9.246-0.84-11.347,0c-16.069-0.199-26.897,0.841-30.26,0
	c-4.105-1.286-2.127-4.003,3.833-6.13c1.949-0.492,5.854-1.235,11.22-1.681c4.623-0.743,6.919-3.286,7.96-6.724
	c3.269-9.531,12.659-14.068,15.601-18.22c2.199-2.815,6.211-7.518,7.293-11.543c3.608-3.43,3.112-9.526,0.323-13.699
	c-3.978-5.362-5.939-14.171-10.138-18.615c-21.583-23.613-29.643-41.585-36.062-49.951c-6.998-4.926-14.987-24.093-19.947-46.349
	c-1.658-7.39-7.678-13.253-14.983-46.537c-3.91-16.047-10.202-35.656-0.824-57.09c3.88-5.387,3.307-13.291,6.724-23.115
	c0-4.623-1.512-10.307,1.261-13.449c-0.051-2.101,0.025-3.562-2.619-5.018c-3.09-2.05-3.757-4.402-3.855-7.289
	c-4.258-3.927-0.696-5.417-5.294-8.287c-5.043-1.681-8.405-2.942-9.666-5.464c-2.301-0.739-4.984-0.989-13.067-1.855
	c-11.203-1.609-27.669-4.224-33.163-7.391c-2.522-1.681-4.152-1.978-0.841-5.29c9.701-9.255,25.415-14.433,41.607-17.405
	c2.522,0,4.326-0.768,5.464-1.681C219.561,87.416,223.585,86.996,224.005,86.996z"/>
</svg>